<?xml version="1.0" encoding="UTF-8"?>
<svg width="245px" height="245px" viewBox="0 0 245 245" version="1.1" xmlns="http://www.w3.org/2000/svg" xmlns:xlink="http://www.w3.org/1999/xlink">
    <!-- Generator: Sketch 48.2 (47327) - http://www.bohemiancoding.com/sketch -->
    <title>Group@2x</title>
    <desc>Created with Sketch.</desc>
    <defs></defs>
    <g id="Github-Claim-Coins" stroke="none" stroke-width="1" fill="none" fill-rule="evenodd" transform="translate(-121.000000, -364.000000)">
        <g id="Group" transform="translate(122.000000, 365.000000)" fill-rule="nonzero" stroke="#8D8D8D">
            <path d="M220.077,0 L184.8825,0 C176.337,0 168.804,4.698 164.8755,12.0285 C153.171,6.885 140.5755,4.05 127.575,4.05 C123.444,4.05 119.3535,4.374 115.344,4.9005 C111.1725,4.3335 107.2035,4.05 103.275,4.05 C83.511,4.05 65.0025,10.4085 49.2885,21.4245 C49.2885,21.4245 49.2885,21.4245 49.2885,21.4245 C41.31,27.0135 34.0605,33.8175 27.702,41.553 C27.4995,41.715 27.378,41.9175 27.216,42.12 C21.222,49.572 16.038,57.915 11.8665,66.906 C11.745,67.1085 11.664,67.311 11.583,67.5135 C8.7075,73.8315 6.318,80.433 4.455,87.3585 C4.293,87.7635 4.1715,88.1685 4.131,88.614 C1.458,99.1035 0,110.079 0,121.5 C0,139.32 3.5235,156.249 9.801,171.396 C9.8415,171.558 9.9225,171.72 10.0035,171.882 C13.77,180.8325 18.5085,189.1755 24.057,196.749 C24.219,196.9515 24.3405,197.1945 24.5025,197.3565 C30.132,204.8895 36.5715,211.6125 43.6995,217.3635 C43.902,217.6065 44.145,217.7685 44.4285,217.9305 C61.1145,231.174 81.405,238.95 103.275,238.95 C107.2035,238.95 111.1725,238.6665 115.344,238.0995 C119.3535,238.626 123.444,238.95 127.575,238.95 C140.5755,238.95 153.171,236.115 164.8755,230.9715 C168.804,238.302 176.3775,243 184.8825,243 L220.077,243 C232.713,243 243,232.713 243,220.077 L243,22.923 C243,10.287 232.713,0 220.077,0 Z M171.1125,24.3 C172.0035,24.8265 172.854,25.3935 173.7045,25.92 C175.041,26.7705 176.337,27.621 177.5925,28.5525 C178.281,29.0385 178.9695,29.5245 179.658,30.051 C181.359,31.3065 183.0195,32.643 184.599,34.0605 C184.842,34.263 185.085,34.4655 185.3685,34.7085 C186.543,35.7615 187.677,36.8955 188.8515,38.0295 C190.3095,39.447 191.727,40.905 193.1445,42.444 C193.914,43.2945 194.6835,44.145 195.453,45.036 C196.7085,46.494 197.883,48.033 199.098,49.572 C199.827,50.5035 200.556,51.435 201.285,52.4475 C201.285,52.488 201.3255,52.488 201.3255,52.5285 C202.581,54.3105 203.796,56.133 204.93,57.996 C205.2135,58.4415 205.497,58.8465 205.74,59.292 C206.0235,59.778 206.307,60.2235 206.5905,60.7095 C208.008,63.1395 209.3445,65.6505 210.6,68.202 L210.6,175.0005 C209.3445,177.552 208.008,180.063 206.5905,182.493 C206.307,182.979 206.0235,183.4245 205.74,183.9105 C205.4565,184.356 205.173,184.761 204.93,185.2065 C203.7555,187.0695 202.581,188.9325 201.3255,190.674 C201.3255,190.7145 201.285,190.7145 201.285,190.755 C200.5965,191.727 199.827,192.6585 199.098,193.6305 C197.9235,195.1695 196.7085,196.668 195.453,198.1665 C194.6835,199.0575 193.914,199.908 193.1445,200.7585 C191.7675,202.257 190.35,203.715 188.8515,205.173 C187.7175,206.307 186.5835,207.441 185.3685,208.494 C185.1255,208.6965 184.8825,208.899 184.599,209.142 C182.979,210.519 181.3185,211.8555 179.658,213.1515 C178.9695,213.678 178.281,214.164 177.5925,214.65 C176.2965,215.5815 175.0005,216.432 173.7045,217.2825 C172.854,217.8495 171.963,218.376 171.1125,218.9025 C169.8975,219.6315 168.642,220.32 167.3865,220.968 C155.0745,227.2455 141.5475,230.85 127.575,230.85 C124.3755,230.85 121.176,230.6475 118.0575,230.283 L116.4375,230.04 C116.235,229.9995 116.0325,229.9995 115.83,229.959 C114.4125,229.7565 113.0355,229.5135 111.618,229.2705 C111.537,229.2705 111.4155,229.23 111.3345,229.1895 C109.998,228.906 108.621,228.6225 107.2845,228.2985 C107.1225,228.258 106.92,228.2175 106.758,228.177 C105.5025,227.853 104.247,227.529 103.032,227.124 C102.708,227.0025 102.384,226.9215 102.06,226.8 C101.007,226.476 99.9135,226.1115 98.8605,225.747 C98.1315,225.4635 97.362,225.18 96.633,224.8965 C95.985,224.6535 95.3775,224.4105 94.7295,224.1675 C72.9405,214.9335 54.918,196.83 43.902,173.7045 C43.821,173.502 43.6995,173.2995 43.6185,173.0565 C43.011,171.801 42.444,170.505 41.9175,169.209 C41.715,168.723 41.5125,168.1965 41.31,167.67 C40.905,166.6575 40.5,165.645 40.095,164.592 C39.852,163.944 39.609,163.296 39.4065,162.6075 C39.0825,161.7165 38.7585,160.785 38.475,159.894 C38.232,159.165 37.989,158.3955 37.7865,157.6665 C37.5435,156.816 37.26,155.925 37.017,155.0745 C36.774,154.305 36.5715,153.495 36.369,152.685 C36.1665,151.8345 35.9235,150.984 35.721,150.1335 C35.5185,149.3235 35.3565,148.5135 35.154,147.663 C34.9515,146.8125 34.7895,145.9215 34.6275,145.071 C34.4655,144.261 34.3035,143.4105 34.182,142.6005 C34.02,141.7095 33.8985,140.778 33.777,139.887 C33.6555,139.077 33.534,138.267 33.4125,137.457 C33.291,136.485 33.1695,135.513 33.0885,134.541 C33.0075,133.7715 32.9265,133.002 32.8455,132.2325 C32.7645,131.0985 32.6835,129.9645 32.6025,128.8305 C32.562,128.1825 32.5215,127.575 32.481,126.927 C32.4405,125.1045 32.4,123.3225 32.4,121.5 C32.4,119.6775 32.4405,117.8955 32.5215,116.1135 C32.562,115.4655 32.6025,114.858 32.643,114.21 C32.724,113.076 32.7645,111.942 32.886,110.808 C32.967,110.0385 33.048,109.269 33.129,108.4995 C33.2505,107.5275 33.3315,106.5555 33.453,105.5835 C33.5745,104.7735 33.696,103.9635 33.8175,103.1535 C33.939,102.2625 34.101,101.331 34.2225,100.44 C34.3845,99.5895 34.506,98.7795 34.668,97.9695 C34.83,97.0785 34.992,96.228 35.1945,95.3775 C35.3565,94.5675 35.559,93.717 35.7615,92.907 C35.964,92.0565 36.1665,91.206 36.4095,90.3555 C36.612,89.5455 36.8145,88.776 37.0575,87.966 C37.3005,87.1155 37.5435,86.2245 37.827,85.374 C38.07,84.645 38.2725,83.8755 38.5155,83.1465 C38.799,82.215 39.123,81.324 39.447,80.433 C39.69,79.785 39.8925,79.0965 40.1355,78.4485 C40.5405,77.436 40.9455,76.383 41.3505,75.3705 C41.553,74.844 41.7555,74.358 41.958,73.8315 C42.525,72.5355 43.092,71.2395 43.659,69.984 C43.74,69.7815 43.8615,69.579 43.9425,69.336 C54.918,46.17 72.981,28.0665 94.77,18.873 C95.3775,18.63 96.0255,18.387 96.6735,18.144 C97.4025,17.8605 98.1315,17.5365 98.901,17.2935 C99.954,16.929 101.007,16.5645 102.1005,16.2405 C102.4245,16.119 102.7485,16.038 103.0725,15.9165 C104.2875,15.552 105.543,15.1875 106.7985,14.8635 C106.9605,14.823 107.163,14.7825 107.325,14.742 C108.6615,14.418 109.998,14.094 111.375,13.851 C111.456,13.851 111.5775,13.8105 111.6585,13.77 C113.0355,13.4865 114.453,13.284 115.8705,13.0815 C116.073,13.041 116.2755,13.041 116.478,13.0005 L118.098,12.7575 C121.176,12.3525 124.3755,12.15 127.575,12.15 C141.5475,12.15 155.0745,15.7545 167.3865,22.2345 C168.642,22.923 169.8975,23.571 171.1125,24.3 Z M194.4,31.995 L194.4,25.92 C194.4,25.029 195.129,24.3 196.02,24.3 L209.0205,24.3 C209.871,24.3 210.6,25.029 210.6,25.92 L210.6,51.6375 C210.3165,51.2325 210.033,50.868 209.79,50.463 C209.5065,50.0175 209.1825,49.572 208.8585,49.1265 C208.17,48.1545 207.522,47.142 206.793,46.17 C206.145,45.279 205.4565,44.469 204.8085,43.6185 C204.4845,43.2135 204.201,42.8085 203.877,42.4035 C203.472,41.9175 203.067,41.391 202.662,40.905 C201.7305,39.771 200.7585,38.6775 199.7865,37.584 C199.422,37.179 199.098,36.774 198.7335,36.4095 C198.5715,36.2475 198.4095,36.0855 198.288,35.9235 C197.235,34.7895 196.1415,33.696 195.048,32.643 C194.805,32.4405 194.6025,32.1975 194.4,31.995 Z M194.4,211.005 C194.6025,210.8025 194.805,210.5595 195.048,210.357 C196.1415,209.304 197.235,208.2105 198.288,207.0765 C198.45,206.9145 198.612,206.7525 198.7335,206.5905 C199.098,206.1855 199.422,205.7805 199.7865,205.416 C200.7585,204.3225 201.7305,203.229 202.662,202.095 C203.067,201.609 203.472,201.0825 203.877,200.5965 C204.201,200.1915 204.4845,199.7865 204.8085,199.3815 C205.4565,198.531 206.145,197.6805 206.793,196.83 C207.522,195.858 208.17,194.8455 208.8585,193.8735 C209.1825,193.428 209.466,192.9825 209.79,192.537 C210.0735,192.132 210.357,191.7675 210.6,191.3625 L210.6,217.08 C210.6,217.971 209.871,218.7 208.98,218.7 L196.02,218.7 C195.129,218.7 194.4,217.971 194.4,217.08 L194.4,211.005 Z M19.9665,174.15 L35.316,174.15 C35.964,175.5675 36.612,177.0255 37.3005,178.4025 C37.584,179.01 37.908,179.577 38.1915,180.1845 C39.042,181.8045 39.8925,183.4245 40.7835,185.004 C41.1075,185.571 41.4315,186.1785 41.7555,186.7455 C42.4845,187.9605 43.2135,189.135 43.983,190.35 L29.4435,190.35 C25.8795,185.2875 22.7205,179.901 19.9665,174.15 Z M18.1035,72.9 L33.615,72.9 C32.886,74.682 32.238,76.464 31.59,78.2865 C31.428,78.7725 31.2255,79.2585 31.0635,79.785 C30.4965,81.5265 29.9295,83.268 29.403,85.05 L13.608,85.05 C14.8635,80.8785 16.4025,76.8285 18.1035,72.9 Z M32.481,48.6 L46.656,48.6 C46.17,49.2885 45.684,50.0175 45.198,50.7465 C43.983,52.5285 42.849,54.3915 41.7555,56.2545 C41.4315,56.8215 41.1075,57.429 40.7835,57.996 C39.8925,59.5755 39.0015,61.1955 38.1915,62.8155 C37.908,63.423 37.584,63.99 37.3005,64.5975 C37.26,64.6785 37.2195,64.719 37.179,64.8 L21.9915,64.8 C25.0695,59.0085 28.593,53.622 32.481,48.6 Z M8.1,121.5 C8.1,118.7865 8.262,116.073 8.424,113.4 L24.5835,113.4 C24.5835,113.481 24.5835,113.5215 24.5835,113.6025 C24.4215,116.1945 24.3,118.827 24.3,121.5 C24.3,122.877 24.3405,124.2135 24.381,125.55 L8.262,125.55 C8.2215,124.2135 8.1,122.877 8.1,121.5 Z M24.867,133.65 C25.029,135.351 25.2315,137.052 25.434,138.7125 C25.434,138.834 25.4745,138.9555 25.4745,139.077 C25.758,141.345 26.1225,143.5725 26.5275,145.8 L10.5705,145.8 C9.7605,141.831 9.153,137.781 8.748,133.65 L24.867,133.65 Z M27.378,93.15 C27.2565,93.636 27.1755,94.122 27.0945,94.608 C26.973,95.1345 26.892,95.661 26.7705,96.1875 C26.2845,98.739 25.839,101.2905 25.4745,103.8825 C25.4745,104.004 25.434,104.1255 25.434,104.247 C25.3935,104.6115 25.353,104.976 25.3125,105.3 L9.234,105.3 C9.7605,101.169 10.449,97.119 11.3805,93.15 L27.378,93.15 Z M28.3095,153.9 C28.431,154.386 28.5525,154.9125 28.674,155.3985 C28.7145,155.5605 28.755,155.763 28.7955,155.925 C29.4435,158.3955 30.213,160.8255 31.023,163.215 C31.185,163.701 31.3875,164.2275 31.5495,164.7135 C31.7115,165.159 31.833,165.6045 31.995,166.05 L16.443,166.05 C14.904,162.1215 13.608,158.0715 12.474,153.9 L28.3095,153.9 Z M84.726,14.661 C83.43,15.3495 82.1745,16.038 80.919,16.767 C80.1495,17.2125 79.38,17.658 78.6105,18.1035 C77.517,18.792 76.4235,19.521 75.33,20.25 L67.5135,20.25 C73.4265,17.496 79.623,15.309 86.0625,13.932 C85.617,14.175 85.1715,14.4585 84.726,14.661 Z M53.5815,28.35 L64.7595,28.35 C63.747,29.241 62.775,30.0915 61.803,31.023 C60.993,31.7925 60.183,32.6025 59.373,33.4125 C58.563,34.2225 57.7935,35.0325 57.024,35.8425 C56.2545,36.6525 55.5255,37.4625 54.7965,38.2725 C54.1485,39.0015 53.541,39.771 52.893,40.5 L39.528,40.5 C43.8615,35.964 48.5595,31.914 53.5815,28.35 Z M35.721,198.45 L49.6125,198.45 C50.058,199.0575 50.544,199.665 50.9895,200.232 C52.2045,201.771 53.46,203.2695 54.756,204.7275 C55.485,205.5375 56.2545,206.3475 56.9835,207.1575 C57.753,207.9675 58.5225,208.7775 59.3325,209.5875 C59.6565,209.9115 59.9805,210.276 60.3045,210.6 L48.114,210.6 C43.74,206.955 39.5685,202.905 35.721,198.45 Z M86.0625,229.068 C76.788,227.124 67.9995,223.5195 59.859,218.7 L69.66,218.7 C70.146,219.105 70.6725,219.4695 71.199,219.834 C72.0495,220.482 72.9,221.13 73.791,221.7375 C75.3705,222.831 76.95,223.884 78.6105,224.8965 C79.38,225.342 80.1495,225.7875 80.919,226.233 C82.1745,226.962 83.43,227.6505 84.726,228.339 C85.1715,228.5415 85.617,228.825 86.0625,229.068 Z M234.9,220.077 C234.9,228.258 228.258,234.9 220.077,234.9 L184.8825,234.9 C179.496,234.9 174.717,232.0245 172.125,227.448 C172.4895,227.2455 172.854,227.0025 173.2185,226.8 C174.6765,225.99 176.1345,225.099 177.5925,224.1675 C178.281,223.722 179.01,223.317 179.739,222.831 C182.007,221.3325 184.2345,219.7125 186.4215,218.0115 C186.867,222.9525 190.9575,226.8 196.02,226.8 L209.0205,226.8 C214.3665,226.8 218.7405,222.426 218.7405,217.08 L218.7405,176.823 L218.7405,158.0715 L218.7405,84.9285 L218.7405,66.177 L218.7405,25.92 C218.7,20.574 214.326,16.2 208.98,16.2 L196.02,16.2 C190.998,16.2 186.9075,20.0475 186.4215,24.948 C184.275,23.247 182.0475,21.627 179.739,20.1285 C179.0505,19.6425 178.3215,19.2375 177.5925,18.792 C176.175,17.901 174.717,17.01 173.259,16.2 C172.8945,15.9975 172.53,15.7545 172.1655,15.552 C174.7575,10.9755 179.5365,8.1 184.923,8.1 L220.1175,8.1 C228.258,8.1 234.9,14.742 234.9,22.923 L234.9,220.077 Z" id="Shape"></path>
        </g>
    </g>
</svg>