<?xml version="1.0" encoding="UTF-8"?>
<svg width="221px" height="175px" viewBox="0 0 221 175" version="1.1" xmlns="http://www.w3.org/2000/svg" xmlns:xlink="http://www.w3.org/1999/xlink">
    <!-- Generator: Sketch 48.2 (47327) - http://www.bohemiancoding.com/sketch -->
    <title>Shapefreenode@2x</title>
    <desc>Created with Sketch.</desc>
    <defs></defs>
    <g id="Freenode-Get-Qualified" stroke="none" stroke-width="1" fill="none" fill-rule="evenodd" transform="translate(-138.000000, -394.000000)">
        <path d="M173.578947,395 L323.421053,395 C342.554737,395 358,410.454667 358,429.6 L358,533.4 C358,552.545333 342.554737,568 323.421053,568 L173.578947,568 C154.445263,568 139,552.545333 139,533.4 L139,429.6 C139,410.454667 154.445263,395 173.578947,395 Z M173.724936,407 C167.973008,407 162.911311,408.947273 159,412.383636 L248.5,470 L338,412.383636 C334.088689,408.947273 329.026992,407 323.275064,407 L173.724936,407 Z M249,484.546928 L152.498824,422 C151.576471,424.53413 151,427.413823 151,430.293515 L151,533.962457 C151,546.633106 161.376471,557 174.058824,557 L323.941176,557 C336.623529,557 347,546.633106 347,533.962457 L347,430.293515 C347,427.413823 346.423529,424.53413 345.501176,422 L249,484.546928 Z" id="Shape" stroke="#E9E9EB" fill-rule="nonzero"></path>
    </g>
</svg>