<?xml version="1.0" encoding="UTF-8"?>
<svg width="78px" height="69px" viewBox="0 0 78 69" version="1.1" xmlns="http://www.w3.org/2000/svg" xmlns:xlink="http://www.w3.org/1999/xlink">
    <!-- Generator: Sketch 48.2 (47327) - http://www.bohemiancoding.com/sketch -->
    <title>Page 1@2x</title>
    <desc>Created with Sketch.</desc>
    <defs>
        <polygon id="path-1" points="0.000380555556 0.224432639 77.8102917 0.224432639 77.8102917 23.3051271 0.000380555556 23.3051271"></polygon>
    </defs>
    <g id="GitHub-Global-Main-Dashboard" stroke="none" stroke-width="1" fill="none" fill-rule="evenodd" transform="translate(-655.000000, -314.000000)" opacity="0.868149909">
        <g id="Page-1" transform="translate(655.000000, 314.000000)">
            <path d="M22.2592653,51.1446688 C20.690425,51.1446688 19.4222236,51.5785021 18.4537097,52.4804188 L18.4537097,44.5011201 L13.7129389,44.5011201 L13.7129389,67.9043354 L18.4537097,67.9043354 L18.4537097,59.7252451 C18.4537097,56.9538493 19.4545708,55.5515021 21.4581958,55.5515021 C23.2943764,55.5515021 24.1620431,56.8872521 24.1620431,58.7567313 L24.1620431,67.9043354 L28.9361125,67.9043354 L28.9361125,58.3894951 C28.9361125,53.8161688 26.2988625,51.1446688 22.2592653,51.1446688" id="Fill-1" fill="#FFFFFF"></path>
            <path d="M40.6640736,57.58795 L38.2266153,57.0209222 C37.4588444,56.8544292 37.0583097,56.5537903 37.0583097,56.1523042 C37.0583097,55.618575 37.6595875,55.1847417 38.5938514,55.1847417 C39.8963028,55.1847417 41.1645042,55.7184708 42.4669556,56.7868806 L45.3715458,53.7157972 C43.4687681,52.0128111 41.2653514,51.1451444 38.7945944,51.1451444 C37.0250111,51.1451444 35.5227681,51.6122764 34.2869139,52.5807903 C33.0529625,53.5150542 32.4516847,54.7509083 32.4516847,56.3197486 C32.4516847,58.9902972 34.2212681,60.7598806 37.7927819,61.6608458 L39.9629,62.1955264 C40.9314139,62.4286167 41.4318444,62.7968042 41.4318444,63.2306375 C41.4318444,63.8642625 40.5641778,64.2990472 39.5956639,64.2990472 C37.9602264,64.2990472 36.3904347,63.5636236 34.9214903,62.1279778 L32.0178514,65.1001167 C33.3859486,66.83545 36.1573444,68.2710958 39.1951292,68.2710958 C43.3679208,68.2710958 46.0384694,66.1009778 46.0384694,62.9965958 C46.0384694,60.2252 44.2365389,58.4223181 40.6640736,57.58795" id="Fill-3" fill="#FFFFFF"></path>
            <polygon id="Fill-5" fill="#FFFFFF" points="64.7744562 51.545584 58.7987826 51.545584 54.2578035 56.7201882 54.2578035 44.5015007 49.5170326 44.5015007 49.5170326 67.9037646 54.2578035 67.9037646 54.2578035 62.8966049 55.3595118 61.6940493 59.2659146 67.9037646 65.0417965 67.9037646 58.731234 58.2890285"></polygon>
            <path d="M60.9145764,15.0708563 C60.8945972,14.974766 60.8051667,14.700766 60.6814861,14.4971688 C60.0069514,13.3849951 58.5018542,10.9047243 58.2373681,10.4927729 C57.9243611,10.0056618 57.4125139,9.58134236 56.6533056,9.58134236 C56.2746528,9.58134236 52.1732153,9.58039097 51.9001667,9.58039097 C51.7070347,9.58039097 51.5357847,9.64032847 51.4558681,9.68504375 L54.4974583,15.0708563 L60.9145764,15.0708563 Z" id="Fill-7" fill="#FFFFFF"></path>
            <path d="M53.5496847,15.6274188 L50.4681361,10.1702521 C50.3653861,10.2492174 50.2607333,10.3395993 50.1446639,10.556516 C49.3997264,11.9464951 47.6244347,15.2763563 47.2248514,16.0270021 L50.4015389,21.5098562 L53.5496847,15.6274188 Z" id="Fill-9" fill="#FFFFFF"></path>
            <path d="M38.7125847,15.4927021 C38.7125847,15.4927021 43.2564181,7.34595903 43.5437375,6.82174375 C43.7930014,6.36507708 43.9005083,5.70100764 43.4914111,5.03122986 C43.0157167,4.25204236 41.0872514,1.08106319 41.0044806,0.949771528 C40.8513069,0.706215972 40.7380917,0.610125694 40.7380917,0.610125694 L32.4077306,15.5003132 L38.7125847,15.4927021 Z" id="Fill-11" fill="#FFFFFF"></path>
            <path d="M27.200684,22.3488861 C27.2501562,22.2566014 27.3262674,22.1928583 27.410941,22.1433861 C27.4252118,22.1338722 27.4394826,22.1272125 27.4556562,22.1196014 C27.4870521,22.1043792 27.5174965,22.0891569 27.5517465,22.0796431 C27.599316,22.0663236 27.6487882,22.0587125 27.6992118,22.0587125 L49.4156146,22.0587125 C49.0607465,21.4422125 48.5593646,20.5669347 48.0361007,19.6545528 C47.3606146,18.4757819 46.6175799,17.1771361 46.2722257,16.5815667 L31.8396562,16.6005944 L31.8387049,16.6005944 C31.8387049,16.6005944 31.8377535,16.5996431 31.8368021,16.5996431 L31.469566,16.6005944 L31.4686146,16.6005944 C31.4048715,16.6005944 31.3430312,16.5844208 31.281191,16.5615875 C31.2659687,16.5568306 31.2516979,16.5511222 31.2374271,16.5444625 C31.225059,16.5397056 31.2117396,16.5368514 31.2003229,16.5301917 C31.178441,16.5178236 31.1651215,16.4978444 31.1460937,16.4835736 C31.1156493,16.4607403 31.0861562,16.4398097 31.0614201,16.4112681 C31.0376354,16.3836778 31.0205104,16.3541847 31.002434,16.3237403 C30.985309,16.2932958 30.968184,16.2647542 30.9567674,16.2324069 C30.9434479,16.1953028 30.938691,16.15915 30.933934,16.1201431 C30.9301285,16.0963583 30.9196632,16.0763792 30.9196632,16.0516431 C30.9196632,16.0411778 30.9253715,16.0326153 30.9263229,16.02215 C30.9272743,15.9859972 30.9377396,15.9517472 30.9472535,15.9155944 C30.9567674,15.8794417 30.9653299,15.8442403 30.9815035,15.8109417 C30.9862604,15.8014278 30.985309,15.7909625 30.990066,15.7824 L39.809441,0.06165 C39.809441,0.0511847222 39.6667326,0.0017125 39.3927326,0.0017125 C38.2453576,0.000761111111 35.2018646,-0.000190277778 34.4483646,-0.000190277778 C33.5150521,-0.000190277778 33.0869271,0.606795833 32.8890382,0.9607125 C30.8245243,4.65305278 19.6542674,24.6274625 17.3842535,28.6870389 C17.302434,28.8335528 17.2643785,28.9448653 17.2434479,29.0637889 L23.6072882,29.0637889 L27.200684,22.3488861 Z" id="Fill-13" fill="#FFFFFF"></path>
            <path d="M19.875275,34.7401556 C20.1882819,35.2272667 20.7001292,35.6515861 21.4593375,35.6515861 C21.5506708,35.6515861 25.9042264,35.6525375 26.2124764,35.6525375 C26.4056083,35.6525375 26.5759069,35.5926 26.656775,35.5478847 L23.6151847,30.1620722 L17.1980667,30.1620722 C17.2180458,30.2581625 17.3074764,30.5321625 17.4311569,30.7357597 C18.1056917,31.8479333 19.6107889,34.3282042 19.875275,34.7401556" id="Fill-15" fill="#FFFFFF"></path>
            <path d="M27.6447924,35.0630569 C27.7475424,34.9840917 27.8521951,34.8937097 27.9682646,34.6767931 C28.7132021,33.2868139 30.4875424,29.9569528 30.8880771,29.2053556 L27.7113896,23.7234528 L24.5632437,29.6058903 L27.6447924,35.0630569 Z" id="Fill-17" fill="#FFFFFF"></path>
            <g id="Group-21" transform="translate(0.000000, 15.944897)">
                <mask id="mask-2" fill="white">
                    <use xlink:href="#path-1"></use>
                </mask>
                <g id="Clip-20"></g>
                <path d="M48.4099014,22.629641 C52.5436861,15.2383007 59.0540403,3.59425208 60.7284847,0.601182639 C60.8103042,0.453717361 60.8483597,0.34335625 60.8692903,0.224432639 L54.50545,0.224432639 L50.9120542,6.93933542 C50.8625819,7.03162014 50.7864708,7.09536319 50.7017972,7.14483542 C50.6875264,7.15339792 50.6723042,7.16100903 50.6570819,7.16862014 C50.6256861,7.18384236 50.5952417,7.20001597 50.5609917,7.20857847 C50.5134222,7.22189792 50.46395,7.22950903 50.412575,7.22950903 L28.6971236,7.22950903 C29.0519917,7.84600903 29.5533736,8.72128681 30.0756861,9.63366875 C30.7511722,10.8124396 31.4951583,12.110134 31.8395611,12.7066549 L46.2730819,12.6876271 C46.2740333,12.6876271 46.2749847,12.6885785 46.2759361,12.6885785 L46.6431722,12.6876271 L46.6441236,12.6876271 C46.7069153,12.6876271 46.7697069,12.7028493 46.8315472,12.7256826 C46.8467694,12.731391 46.8610403,12.7370993 46.8753111,12.7428076 C46.8876792,12.748516 46.9000472,12.7513701 46.9124153,12.7580299 C46.9342972,12.7703979 46.9466653,12.7903771 46.9656931,12.8046479 C46.9970889,12.8274813 47.0256306,12.8484118 47.0513181,12.8779049 C47.0751028,12.9045438 47.0922278,12.9340368 47.1103042,12.9654326 C47.1274292,12.9949257 47.1445542,13.022516 47.1559708,13.0558146 C47.1683389,13.0929188 47.1740472,13.1290715 47.1788042,13.1680785 C47.1816583,13.1918632 47.193075,13.2127938 47.193075,13.2365785 C47.193075,13.2470438 47.1873667,13.2556063 47.1864153,13.2660715 C47.1845125,13.3022243 47.1749986,13.3364743 47.1654847,13.3726271 C47.1559708,13.4087799 47.1474083,13.4439813 47.1312347,13.4772799 C47.1264778,13.4867938 47.1274292,13.4963076 47.1226722,13.5058215 L42.0042,22.629641 L40.7588319,22.629641 L45.7051028,13.7874326 L39.3992972,13.7950438 C39.3992972,13.7950438 34.8564153,21.9427382 34.5690958,22.4669535 C34.5424569,22.5164257 34.5234292,22.5744604 34.4996444,22.629641 L0.000380555556,22.629641 L0.000380555556,23.3051271 L77.8106722,23.3051271 L77.8106722,22.629641 L48.4099014,22.629641 Z" id="Fill-19" fill="#FFFFFF" mask="url(#mask-2)"></path>
            </g>
        </g>
    </g>
</svg>