<?xml version="1.0" encoding="UTF-8"?>
<svg width="256px" height="260px" viewBox="0 0 256 260" version="1.1" xmlns="http://www.w3.org/2000/svg" xmlns:xlink="http://www.w3.org/1999/xlink">
    <!-- Generator: Sketch 48.2 (47327) - http://www.bohemiancoding.com/sketch -->
    <title>Shape@2x</title>
    <desc>Created with Sketch.</desc>
    <defs></defs>
    <g id="Github-Get-Qualified" stroke="none" stroke-width="1" fill="none" fill-rule="evenodd" transform="translate(-109.000000, -366.000000)" opacity="0.296525187">
        <path d="M172.767462,493.434155 C162.11423,479.869828 143.093218,476.232124 128.186582,484.908212 C113.279946,493.5843 107.048039,511.919925 113.580426,527.882702 C120.112812,543.845478 137.411053,552.551951 154.123526,548.288671 C170.835999,544.025392 181.849895,528.096616 179.937567,510.955283 L204.524507,500.760698 C205.202408,501.803622 205.906382,502.820474 206.688575,503.811252 C213.254682,512.176179 222.59442,517.918731 233.022414,520.002652 L233.934972,556.296417 C217.062288,561.037943 206.427109,577.678185 209.210034,594.982082 C211.992959,612.28598 227.30928,624.752534 244.817815,623.96465 C262.326349,623.176766 276.461042,609.384916 277.678515,591.901001 C278.895988,574.417085 266.8092,558.799332 249.578837,555.592443 L248.692351,520.419821 C256.308368,519.267248 263.495211,516.158938 269.550837,511.398526 C272.243809,509.267386 274.684439,506.835504 276.825234,504.150202 L295.07641,512.545743 C294.946044,513.301863 294.789605,514.03191 294.685313,514.814103 C292.642105,531.013962 302.324116,546.402002 317.812501,551.571147 C333.300886,556.740292 350.284112,550.251595 358.379925,536.071753 C366.475739,521.891911 363.430493,503.968195 351.105819,493.257801 C338.781145,482.547407 320.607887,482.03181 307.695794,492.026207 C305.395072,493.842413 303.335986,495.945309 301.568613,498.283753 L284.490728,490.461821 C285.457737,487.573375 286.130364,484.594598 286.498357,481.570891 C287.909945,470.067645 284.776088,458.467696 277.763866,449.240238 L294.65924,436.829438 C299.476926,440.512415 305.194468,442.835448 311.215663,443.5563 C312.599779,443.726388 313.992837,443.813454 315.38736,443.817031 C330.688558,443.794793 344.119944,433.628855 348.296598,418.908708 C352.473252,404.188562 346.382447,388.48345 333.373063,380.428446 C320.36368,372.373442 303.590146,373.921668 292.274981,384.221871 C280.959815,394.522074 277.846643,411.076729 284.647167,424.783663 L265.978822,438.393825 C252.626582,429.877758 235.764433,429.064407 221.654539,436.25583 L209.817348,421.785255 C219.790319,407.628386 217.580515,388.246515 204.676761,376.697912 C191.773007,365.149309 172.265645,365.094748 159.297492,376.57099 C146.329339,388.047231 144.011151,407.416437 153.904776,421.628872 C163.7984,435.841307 182.767671,440.391791 198.032303,432.214498 L209.139447,445.746441 C199.02203,456.677056 194.987727,471.915586 198.371254,486.420489 L174.722945,496.145758 C174.09719,495.224508 173.445363,494.320641 172.767462,493.434155 Z M164.293702,516.899952 C163.230897,525.718288 156.086345,532.55754 147.230026,533.234464 C138.373707,533.911388 130.272719,528.237414 127.882048,519.683041 C125.491377,511.128667 129.476991,502.076879 137.40108,498.064221 C145.325169,494.051563 154.980327,496.195839 160.460955,503.185497 C163.491647,507.035055 164.87019,511.930287 164.293702,516.795659 L164.293702,516.899952 Z M310.303104,516.899952 C311.365909,508.081615 318.510462,501.242364 327.366781,500.56544 C336.2231,499.888516 344.324088,505.56249 346.714759,514.116863 C349.105429,522.671236 345.119816,531.723025 337.195727,535.735682 C329.271637,539.74834 319.61648,537.604065 314.135851,530.614406 C311.030274,526.691635 309.647406,521.677561 310.303104,516.71744 L310.303104,516.899952 Z M303.915193,394.929954 C309.830056,390.282127 317.962986,389.657036 324.518637,393.346391 C331.074289,397.035745 334.760383,404.312283 333.856752,411.780305 C332.953122,419.248327 327.637894,425.435705 320.391494,427.455011 C313.145095,429.474318 305.395966,426.927498 300.760347,421.003062 C294.45759,412.924758 295.86759,401.271865 303.915193,394.929954 Z M257.974378,577.780658 C263.315053,584.590606 263.250024,594.18515 257.817532,600.922081 C252.38504,607.659011 243.02225,609.756073 235.235086,605.980059 C227.447922,602.204046 223.296477,593.5539 225.22207,585.116466 C227.147662,576.679031 234.640876,570.686431 243.295218,570.6627 C244.05327,570.660569 244.810762,570.704103 245.563578,570.793065 C250.467757,571.371119 254.936797,573.887301 257.974378,577.780658 Z M223.948972,453.229423 C229.057354,449.193839 235.377162,446.99844 241.88727,446.99795 C243.07236,446.996477 244.256469,447.066131 245.433213,447.206535 C259.251681,448.870344 269.970809,460.063256 271.035773,473.940726 C272.100738,487.818197 263.214965,500.515599 249.812169,504.268382 C236.409372,508.021165 222.22199,501.784246 215.925706,489.371545 C209.629423,476.958844 212.97764,461.827076 223.922899,453.229423 L223.948972,453.229423 Z M193.417363,416.466341 C185.331887,422.809444 173.635212,421.396972 167.292109,413.311495 C160.949006,405.226019 162.361479,393.529344 170.446955,387.186242 C178.532432,380.843139 190.229106,382.255611 196.572209,390.341088 C202.915312,398.426564 201.502839,410.123238 193.417363,416.466341 Z" id="Shape" stroke="#E9E9EB" stroke-width="3" fill-rule="nonzero"></path>
    </g>
</svg>