<?xml version="1.0" encoding="UTF-8"?>
<svg width="101px" height="101px" viewBox="0 0 101 101" version="1.1" xmlns="http://www.w3.org/2000/svg" xmlns:xlink="http://www.w3.org/1999/xlink">
    <!-- Generator: Sketch 48.2 (47327) - http://www.bohemiancoding.com/sketch -->
    <title>Groupsuccess@2x</title>
    <desc>Created with Sketch.</desc>
    <defs></defs>
    <g id="Github-Confirmation" stroke="none" stroke-width="1" fill="none" fill-rule="evenodd" transform="translate(-586.000000, -385.000000)">
        <g id="Group" transform="translate(586.000000, 385.000000)" fill="#00FFEB" fill-rule="nonzero">
            <path d="M50.5,0 C22.611375,0 0,22.611375 0,50.5 C0,78.388625 22.611375,101 50.5,101 C78.388625,101 101,78.388625 101,50.5 C101,22.611375 78.388625,0 50.5,0 Z M50.5,92.5833333 C27.29525,92.5833333 8.41666667,73.70475 8.41666667,50.5 C8.41666667,27.29525 27.29525,8.41666667 50.5,8.41666667 C73.70475,8.41666667 92.5833333,27.29525 92.5833333,50.5 C92.5833333,73.70475 73.70475,92.5833333 50.5,92.5833333 Z" id="Shape" fill-opacity="0.320510643"></path>
            <polygon id="Shape" points="42 59.9981818 30 48.0006061 24 53.9993939 42 72 78 36.0030303 72 30"></polygon>
        </g>
    </g>
</svg>