<?xml version="1.0" encoding="UTF-8"?>
<svg width="160px" height="167px" viewBox="0 0 160 167" version="1.1" xmlns="http://www.w3.org/2000/svg" xmlns:xlink="http://www.w3.org/1999/xlink">
    <!-- Generator: Sketch 48.2 (47327) - http://www.bohemiancoding.com/sketch -->
    <title>Fill 1img_db_signup@2x</title>
    <desc>Created with Sketch.</desc>
    <defs></defs>
    <g id="Github-Sign-Up" stroke="none" stroke-width="1" fill="none" fill-rule="evenodd" transform="translate(-89.000000, -293.000000)">
        <path d="M226.30139,348 L216,329 L235.957654,329.006137 C236.49084,329.006137 237.1124,329.374354 237.404032,329.871447 C237.722176,330.414567 239.342355,333.188469 241.289515,336.520833 C243.619626,340.509851 246.406333,345.278262 248,348 L226.30139,348 Z M190.049616,458.130758 C189.569986,459 188.947053,459 188.745257,459 L180.650043,459 C176.365546,458.997033 171.42302,458.994067 168.480901,458.994067 L199.963913,401.846627 C200.487412,400.897285 200.475713,399.740274 199.931743,398.802799 C199.387773,397.865323 198.399268,397.289784 197.328874,397.289784 L197.32595,397.289784 L143.668837,397.360985 L133,378.682676 L211.153324,378.682676 C211.159173,378.682676 211.165022,378.679709 211.173796,378.679709 C211.18257,378.679709 211.188419,378.682676 211.194268,378.682676 C211.238136,378.682676 211.27908,378.667842 211.322949,378.664875 C211.498423,378.653009 211.673898,378.635209 211.840598,378.593675 C211.969279,378.564008 212.095036,378.522474 212.220792,378.475007 C212.288058,378.448307 212.352398,378.421606 212.416739,378.39194 C213.001653,378.127904 213.519302,377.694766 213.849779,377.080661 L226.732516,353 L248,353 L190.049616,458.130758 Z M163.701677,456 C163.008891,454.872438 162.108862,453.407194 161.128895,451.812751 C157.833722,446.436275 153.611874,439.553447 153.135214,438.798803 C152.97534,438.54334 152.901325,437.920831 153.235875,437.327686 C153.999716,435.971088 168.42387,410.286747 171.938129,404.026427 L193,404 L163.701677,456 Z M126.401457,420 L116,401.583778 L126.483821,382 L137,400.142713 C133.731895,406.274592 128.631181,415.838557 126.401457,420 Z M113.382802,423.996932 C108.079912,423.996932 102.806481,423.993863 102.03167,423.993863 L102.028724,423.993863 C101.510219,423.993863 100.88271,423.616441 100.596943,423.131621 L97.2060394,417.329134 C94.790278,413.192829 91.7087093,407.91812 90,405 L111.700608,405 L122,424 C119.752164,424 116.570429,423.996932 113.382802,423.996932 Z M148.101127,294.872233 C148.582029,294 149.203682,294 149.406013,294 L169.812076,294.002967 L138.160539,351.152005 C138.134148,351.199474 138.119486,351.249909 138.096027,351.300344 C138.04911,351.395281 138.008058,351.493185 137.969937,351.594055 C137.937682,351.691959 137.908358,351.786896 137.881967,351.884799 C137.858509,351.97677 137.837983,352.06874 137.823321,352.16071 C137.805727,352.276414 137.793998,352.389152 137.791065,352.501889 C137.788133,352.552324 137.776404,352.599793 137.776404,352.653195 C137.776404,352.691763 137.785201,352.727364 137.788133,352.765932 C137.791065,352.87867 137.802795,352.988441 137.820389,353.098212 C137.832118,353.190182 137.84678,353.282152 137.870238,353.374122 C137.893697,353.472026 137.925952,353.563996 137.958208,353.658933 C137.990464,353.750903 138.022719,353.84584 138.063772,353.934843 C138.104824,354.023846 138.151742,354.106916 138.201591,354.192953 C138.251441,354.276022 138.298358,354.359092 138.357004,354.439195 C138.412719,354.519298 138.47723,354.593467 138.544673,354.670604 C138.609185,354.741806 138.673696,354.815976 138.744072,354.884212 C138.814447,354.949481 138.887756,355.00585 138.963996,355.065185 C139.049034,355.133421 139.134071,355.195723 139.224973,355.252092 C139.260161,355.27286 139.286552,355.299561 139.32174,355.320328 C139.356928,355.341095 139.395048,355.347029 139.433168,355.36483 C139.588582,355.444933 139.752792,355.513169 139.925799,355.566571 C139.987378,355.584371 140.046025,355.608105 140.110536,355.622939 C140.330461,355.676341 140.55625,355.708976 140.793768,355.708976 C140.7967,355.708976 140.7967,355.711943 140.799633,355.711943 L140.802565,355.711943 L140.805497,355.711943 L142.145571,355.708976 C142.151436,355.708976 142.1573,355.711943 142.163165,355.711943 L142.166097,355.711943 L194.613698,355.64074 C196.000688,358.073498 198.592866,362.651236 200.800908,366.549582 C202.495793,369.546027 203.897445,372.017353 205,373.960592 L126.953185,373.960592 C126.917997,373.960592 126.885741,373.972459 126.853486,373.975426 C125.791983,373.993227 124.768601,374.559881 124.229053,375.577486 L111.30922,400 L90,400 C99.3013412,383.166503 147.479474,295.993675 148.101127,294.872233 Z M175.341404,297 L177.254265,300.116766 C180.615098,305.603449 185.36172,313.348318 185.865104,314.153972 C186.025003,314.409782 186.09903,315.030195 185.761466,315.627085 L167.056284,348.973537 L146,349 L175.341404,297 Z M210.667918,333 L221,351.926026 L210.466416,372 C209.21068,369.740356 207.651231,366.924864 206.188152,364.281565 C203.297038,359.058404 201.188569,355.255074 200,353.12835 C202.245724,348.890008 208.182728,337.676375 210.667918,333 Z" id="Fill-1" stroke="#979797"></path>
    </g>
</svg>