<?xml version="1.0" encoding="utf-8"?>
<!-- Generator: Adobe Illustrator 19.2.0, SVG Export Plug-In . SVG Version: 6.00 Build 0)  -->
<svg version="1.1" id="Layer_1" xmlns="http://www.w3.org/2000/svg" xmlns:xlink="http://www.w3.org/1999/xlink" x="0px" y="0px"
	 viewBox="0 0 32 32" style="enable-background:new 0 0 32 32;" xml:space="preserve">
<style type="text/css">
	.st0{fill:#f7f7f7;}
	.st1{fill:#888888;}
	.st2{fill:#282828;}
	.st3{fill:#FFFFFF;}
	.st4{fill:#282827;}
	.st5{fill:#b4b4b4;}
</style>
<g id="g4516">
	<g id="g4522" transform="translate(300,362.4287)">
		<path id="path4524" class="st0" d="M-284-358.1c-8.3,0-15,6.7-15,15c0,2.9,0.8,5.5,2.2,7.8l3.9-4.2l19.8,0.1l-0.1,6.6
			c2.6-2.7,4.2-6.4,4.2-10.4C-269-351.4-275.7-358.1-284-358.1"/>
	</g>
	<g id="g4526" transform="translate(263.8363,339.6274)">
		<path id="path4528" class="st1" d="M-254.6-331.1c-0.7,0-1.3-0.7-1.2-1.4l0.1-1.6c0-0.7,0.6-1.3,1.3-1.3c0,0,0.1,0,0.1,0l1.6,0.1
			c0.4,0,0.7,0.2,0.9,0.4c0.2,0.3,0.4,0.6,0.3,1l-0.1,1.6c0,0.1,0,0.2,0,0.2l-0.1,0.3l-1.1,0.8L-254.6-331.1z"/>
	</g>
	<g id="g4530" transform="translate(264.8025,366.6468)">
		<path id="path4532" class="st2" d="M-255.4-363.1c-1.1,0-2.1,0.9-2.1,2l-0.1,1.6l0,0l0,0c-0.1,1.2,0.8,2.2,2,2.3l1.6,0.1l0.6,0
			l0.5-0.3l0.6-0.4l0.5-0.4l0.1-0.6c0-0.1,0-0.2,0.1-0.3l0.1-1.6c0-0.6-0.2-1.1-0.5-1.5c-0.4-0.4-0.9-0.7-1.5-0.7l-1.6-0.1h0l0,0
			C-255.3-363.1-255.4-363.1-255.4-363.1 M-254.2-359.7l0.1-1l-1-0.1l-0.1,1L-254.2-359.7 M-255.4-361.5
			C-255.4-361.5-255.4-361.5-255.4-361.5l1.6,0.1c0.1,0,0.3,0.1,0.4,0.2c0.1,0.1,0.1,0.2,0.1,0.4l-0.1,1.6c0,0,0,0,0,0.1l-0.6,0.4
			l-1.6-0.1c-0.3,0-0.5-0.3-0.5-0.6l0.1-1.6C-255.9-361.3-255.7-361.5-255.4-361.5"/>
	</g>
	<g id="g4534" transform="translate(300,320.9623)">
		<path id="path4536" class="st3" d="M-284-308.9c-6.3,0-11.3,5.1-11.3,11.3c0,2.3,0.7,4.5,1.9,6.3h19.3c1-1.9,1.5-4.1,1.5-6.3
			C-272.7-303.3-277.7-308.9-284-308.9"/>
	</g>
	<g id="g4538" transform="translate(299.9999,325.255)">
		<path id="path4540" class="st4" d="M-284-314c-6.7,0-12.1,5.4-12.1,12.1c0,2.3,0.6,4.5,1.8,6.3h1.9c-1.3-1.8-2.1-3.9-2.1-6.3
			c0-5.8,4.7-10.5,10.5-10.5c2.8,0,5.4,1.2,7.4,3.3c2,2,3.1,4.7,3.1,7.3c0,1.8-0.3,4.2-1.6,6.3h1.8c0.9-1.8,1.3-3.9,1.3-6.3
			c0-3-1.3-6.1-3.5-8.4C-277.7-312.7-280.8-314-284-314"/>
	</g>
	<g id="g4542" transform="translate(287.7891,242.9254)">
		<path id="path4544" class="st4" d="M-274.1-216.2c0,0.6-0.5,1.1-1.1,1.1s-1.1-0.5-1.1-1.1c0-0.6,0.5-1.1,1.1-1.1
			S-274.1-216.8-274.1-216.2"/>
	</g>
	<g id="g4546" transform="translate(323.8228,242.9254)">
		<path id="path4548" class="st4" d="M-303.4-216.2c0,0.6-0.5,1.1-1.1,1.1s-1.1-0.5-1.1-1.1c0-0.6,0.5-1.1,1.1-1.1
			S-303.4-216.8-303.4-216.2"/>
	</g>
	<g id="g4550" transform="translate(234.0117,245.2287)">
		<path id="path4552" class="st5" d="M-230.4-219l6-6.4l-1.5,4.6c4.7-3.4,9.7-2.9,13.2-1.9c3.7,1.1,6.3-2.2,3.8-5.7
			c-1.2-1.7-2.9-3-4.7-3.9c-4.9-2.2-9.9-0.9-13.2,2.5C-230.4-226.2-230.4-222.2-230.4-219"/>
	</g>
	<g id="g4554" transform="translate(296.9716,317.3886)">
		<path id="path4556" class="st4" d="M-281.5-304.6c-0.7,0-1.4,0.1-2.1,0.2c-2.1,0.4-4,1.5-5.6,3.1c-2.6,2.7-3.2,5.5-3.3,8.2
			l7.1-7.5l-1.9,5.9c3.5-1.8,7.5-2.1,12-0.8c1.4,0.4,2.7,0.1,3.3-0.8c0.7-0.9,0.5-2.3-0.5-3.6c-1.1-1.6-2.7-2.8-4.4-3.6
			C-278.4-304.3-280-304.6-281.5-304.6 M-294.1-289.1v-2c0-3.4,0-7.5,3.8-11.4c1.8-1.8,4-3,6.4-3.5c2.5-0.5,5.2-0.2,7.7,0.9
			c2,0.9,3.8,2.3,5.1,4.1c1.4,1.9,1.5,4,0.5,5.5c-1,1.5-3,2-5.1,1.4c-4.8-1.4-8.9-0.8-12.5,1.7l-2,1.4l1.1-3.5L-294.1-289.1z"/>
	</g>
	<g id="g4558" transform="translate(315.4395,324.1835)">
		<path id="path4560" class="st5" d="M-296.5-312.7c-0.7,1.9-2.8,2.9-4.7,2.4c-2.2-0.6-3.3-2.4-3-4.6c0.3-2.2,1.8-4.1,3.5-6.5
			c-1.4,3-0.2,3.3,0.2,3.3c0.4,0,0.9,0,1.7,0.3C-296.9-317.1-295.7-314.8-296.5-312.7"/>
	</g>
	<g id="g4562" transform="translate(285.8294,353.465)">
		<path id="path4564" class="st4" d="M-272.5-347.5c-0.7,1.2-1.3,2.2-1.4,3.4c-0.2,1.8,0.7,3.2,2.5,3.7c1.5,0.4,3.2-0.4,3.7-1.9
			c0.3-0.8,0.3-1.7-0.1-2.5c-0.4-0.8-1-1.4-1.8-1.6c-0.7-0.2-1.2-0.3-1.4-0.3c-0.6,0-1.1-0.2-1.4-0.7
			C-272.4-347.4-272.5-347.4-272.5-347.5 M-270.6-338.7c-0.4,0-0.8-0.1-1.3-0.2c-1.2-0.4-2.2-1-2.9-2c-0.6-1-0.9-2.1-0.7-3.4
			c0.3-2.3,1.7-4.2,3.3-6.4c0.1-0.2,0.2-0.3,0.3-0.5l1.4,0.8c-0.7,1.5-0.6,2-0.6,2.1c0.5,0,1.2,0.1,2,0.3c1.2,0.4,2.2,1.3,2.8,2.5
			c0.6,1.2,0.6,2.5,0.1,3.7C-266.9-339.9-268.7-338.7-270.6-338.7"/>
	</g>
	<g id="g4566" transform="translate(304.5916,286.1613)">
		<path id="path4568" class="st1" d="M-287.7-267.6c-0.3,0-0.5-0.1-0.7-0.3l-0.5-0.7c-0.3-0.4-0.3-0.9,0.1-1.3
			c-0.1-0.1-0.2-0.1-0.3-0.2l-0.1-0.2c-0.3-0.4-0.3-1,0.1-1.3l0.1-0.1l-0.8-1c-0.4-0.4-0.3-1.1,0.1-1.4c0.2-0.1,0.4-0.2,0.6-0.2
			c0.3,0,0.6,0.1,0.8,0.4l3.4,4.2c0.4,0.4,0.3,1.1-0.1,1.4c-0.1,0.1-0.3,0.2-0.4,0.2c-0.1,0-0.2,0-0.2,0l0,0c-0.3,0-0.5-0.1-0.7-0.3
			l-0.7,0.6C-287.3-267.6-287.5-267.6-287.7-267.6"/>
	</g>
	<g id="g4570" transform="translate(304.0229,322.0345)">
		<path id="path4572" class="st2" d="M-287.3-310.2c-0.3-0.4-0.8-0.6-1.3-0.6c-0.4,0-0.8,0.1-1.1,0.4c-0.7,0.6-0.8,1.6-0.2,2.4
			l0.4,0.5c-0.3,0.6-0.3,1.3,0.1,1.8l0.1,0.1c-0.2,0.5-0.1,1.1,0.3,1.6l0.5,0.7c0.3,0.4,0.8,0.6,1.2,0.6c0.4,0,0.7-0.1,1-0.4
			l0.3-0.3c0.2,0.1,0.4,0.1,0.6,0.1c0.1,0,0.3,0,0.4,0c0.2-0.1,0.5-0.2,0.7-0.3c0.7-0.6,0.8-1.6,0.2-2.4L-287.3-310.2L-287.3-310.2z
			 M-288.6-309.5c0.1,0,0.2,0,0.3,0.1l3.4,4.2c0.1,0.2,0.1,0.4-0.1,0.5c0,0-0.1,0.1-0.1,0.1c0,0-0.1,0-0.1,0c-0.1,0-0.2,0-0.3-0.1
			l-0.3-0.4l-1.2,1c-0.1,0-0.1,0.1-0.2,0.1c-0.1,0-0.2,0-0.2-0.1l-0.5-0.7c-0.1-0.1-0.1-0.3,0-0.4l1.2-1l-0.5-0.6l-0.6,0.5
			c0,0-0.1,0.1-0.2,0.1c-0.1,0-0.2,0-0.2-0.1l-0.1-0.2c-0.1-0.1-0.1-0.3,0-0.4l0.6-0.5l-1.2-1.5c-0.1-0.2-0.1-0.4,0.1-0.5
			C-288.7-309.4-288.6-309.5-288.6-309.5"/>
	</g>
</g>
</svg>
