<?xml version="1.0" encoding="utf-8"?>
<!-- Generator: Adobe Illustrator 18.0.0, SVG Export Plug-In . SVG Version: 6.00 Build 0)  -->
<!DOCTYPE svg PUBLIC "-//W3C//DTD SVG 1.1//EN" "http://www.w3.org/Graphics/SVG/1.1/DTD/svg11.dtd">
<svg version="1.1" id="Layer_1" xmlns="http://www.w3.org/2000/svg" xmlns:xlink="http://www.w3.org/1999/xlink" x="0px" y="0px"
	 viewBox="0 0 250 300" enable-background="new 0 0 250 300" xml:space="preserve">
<polygon fill="#FFFFFF" points="90.3,48.3 92.2,28 103.9,26.6 122.6,45.6 153.3,44.6 180.7,57.6 199,83.9 205,124 192.3,157.2 
	182.5,182.6 198,229.1 205,261.6 193,282.1 162,294.1 134,279.6 111.9,207.6 73.6,198.6 39,160.3 39,121.6 18,101.6 25.5,94 
	55.5,91.1 "/>
<linearGradient id="SVGID_1_" gradientUnits="userSpaceOnUse" x1="32.2014" y1="24.3381" x2="155.1307" y2="318.9218">
	<stop  offset="0" style="stop-color:#0D0D0D"/>
	<stop  offset="1" style="stop-color:#2B2B2B"/>
</linearGradient>
<path fill="url(#SVGID_1_)" d="M79.4,118.3c-1.1-1.1-2.3-1.7-3.6-2.1c-1.4-0.3-2.7-0.3-4.1,0c-1.4,0.3-2.6,1-3.6,2.1
	c-1.1,1.1-1.8,2.3-2.1,3.6c-0.3,1.3-0.3,2.7,0,4c0.3,1.3,1,2.6,2.1,3.6c1.6,1.6,3.5,2.3,5.7,2.4c2.2,0,4.1-0.8,5.7-2.3
	c1.8-1.8,2.5-3.8,2.3-6C81.6,121.4,80.8,119.6,79.4,118.3z"/>
<linearGradient id="SVGID_2_" gradientUnits="userSpaceOnUse" x1="78.1101" y1="5.1782" x2="201.0417" y2="299.7676">
	<stop  offset="0" style="stop-color:#0D0D0D"/>
	<stop  offset="1" style="stop-color:#2B2B2B"/>
</linearGradient>
<path fill="url(#SVGID_2_)" d="M109.9,93.7c1.3,0.3,2.7,0.3,4,0c1.3-0.3,2.6-1,3.6-2.1c1.8-1.8,2.5-3.7,2.3-5.9
	c-0.2-2.2-1-4-2.4-5.3c-1.1-1-2.2-1.7-3.6-2.1c-1.3-0.3-2.7-0.3-4,0c-1.4,0.3-2.6,1-3.6,2.1c-1.6,1.6-2.3,3.4-2.4,5.6
	c0,2.2,0.8,4.1,2.3,5.6C107.3,92.7,108.5,93.4,109.9,93.7z"/>
<linearGradient id="SVGID_3_" gradientUnits="userSpaceOnUse" x1="85.3556" y1="2.156" x2="208.2853" y2="296.7406">
	<stop  offset="0" style="stop-color:#0D0D0D"/>
	<stop  offset="1" style="stop-color:#2B2B2B"/>
</linearGradient>
<path fill="url(#SVGID_3_)" d="M177.9,96.2c-8.3-8.3-19.4-9.7-33.1-4.1l0.9,2.5c9.1-2.1,16.3-0.5,21.5,4.7c3.8,3.8,5.4,7.8,4.9,12.2
	c-0.5,4.3-2.2,7.9-5.2,10.9c-3.9,3.9-8.8,6.1-14.5,6.4c-5.7,0.3-11.4-1.7-17.2-6.2l-1.5,1.5l1.6,1.6c3.6,3.6,6,7.6,7.4,12.2
	c1.4,4.6,1.4,9,0,13.1c-1.4,4.1-3.5,7.6-6.4,10.5c-3.2,3.2-7.4,5.1-12.6,5.7c-5.2,0.6-9.7-1.1-13.7-5c-2-2-3.9-5.4-5.5-10.1
	c-1.6-4.7-3.1-7.8-4.5-9.3c-2.7-2.7-5.3-2.8-7.7-0.3c-3.6,3.6-1.5,9.4,6.5,17.4c8.5,8.5,17.4,12.8,26.9,13
	c9.4,0.2,17.5-3.1,24.3-9.9c8.6-8.6,10.3-18.9,5.1-30.8c11.6,0.9,20-1.1,25-6.1c3.5-3.5,5.2-8.1,5.3-13.8
	C185.3,106.5,182.9,101.2,177.9,96.2z"/>
<linearGradient id="SVGID_4_" gradientUnits="userSpaceOnUse" x1="70.2059" y1="8.4782" x2="193.1354" y2="303.0623">
	<stop  offset="0" style="stop-color:#0D0D0D"/>
	<stop  offset="1" style="stop-color:#2B2B2B"/>
</linearGradient>
<path fill="url(#SVGID_4_)" d="M249.1,164.9l-0.9,0.9c-0.9,0.9-1.8,1.4-2.7,1.4c-0.8,0-2-0.8-3.6-2.3l-15.8-15.5
	c-0.3-0.3-0.6-0.5-0.9-0.8c0.9-0.4,2-0.5,3.2-0.5h2.5v-2h-7.1c0,0,0,0,0-0.1c-0.2-0.8,0.2-1.8,1.3-2.9l0.9-0.9l-0.7-0.7l-4.5,4.5
	h-11.4c0.2,0,0.3-1,0.5-1.5c4.3-15.2,4.9-30.1,1.7-44.7c-3.2-14.6-10.5-27.6-22-39.1c-17.5-17.5-38.4-26.1-62.9-26
	c-1.6,0-3.1,0.1-4.6,0.1L107.9,20c-1.9-2-2.1-4-0.8-6.2c1.4-2.2,3.4-4.6,6.2-7.3l3.1-3l-0.8-0.8L90.2,27.1l-3,17.1
	c-9,4.6-17.5,10.9-25.5,18.9c-7.5,7.5-13.6,15.4-18.3,23.5l-17.8,2.6L0.1,113.7l0.8,0.8c5.5-5.2,9.3-8.2,11.4-9
	c2.2-0.8,4-0.4,5.5,1.2l14.1,14.7c-1.1,9.8-0.6,19.4,1.6,29c3.4,14.7,11.2,28.1,23.2,40.2c13.7,13.7,29.4,21.8,47,24.2
	c0.2,0.5,0.4,1,0.5,1.5l14.3,42.2c4.3,12.8,8.6,21.9,12.7,27.4c4.2,5.4,10.3,9,18.3,10.6c8,1.6,17.4,0.6,28-3
	c11-3.7,19.1-8.9,24.2-15.5c5.1-6.6,7.4-13.5,6.9-20.8c-0.5-7.3-2.3-15.6-5.4-24.8l-14.1-41.7l14.9,10.7c0.7,0.5,1.9,1,1.9,1.5v0.1
	h0.4c1.3,2,2.1,2.2,2.5,3.1c0.6,1.3,0.1,3.1-1.4,5.2l-1.2,1.7l1.3,0.8l7.7-10.8H231v-1h-2.5c-1.1,0-2.1-0.4-3.1-0.8
	c-1-0.4-2-1.1-2.5-1.8c-0.5-0.7-0.9-2.9-0.9-6.2v-36.9c0-1.4,0.3-2.7,0.4-3.7c0.1,0.1,0.3,0.2,0.3,0.2l15.8,15.5
	c1.7,1.6,2.5,2.9,2.3,3.8c-0.1,0.9-0.5,1.7-1.2,2.4l-0.9,0.9l0.7,0.7l10.3-10.5L249.1,164.9z M35.2,105.5c-0.6,2-1.1,4-1.6,6
	l-10.4-10.9l14.4-2C36.7,100.9,35.9,103.2,35.2,105.5z M94.8,31.9l6.4,6.6c-2.7,0.8-5.4,1.8-8.1,3L94.8,31.9z M135.5,258.3
	l-7.2-21.3l7.2,12.5c1.6,2.8,2.4,4.9,2.4,6.4c0,1.1-0.7,2.2-2.1,3.2C135.7,258.9,135.6,258.6,135.5,258.3z M195.9,234.2
	c4.2,12.4,5.9,21.3,5.1,26.9c-0.8,5.5-3.5,10.6-8.2,15.2c-4.7,4.6-10.2,8-16.5,10.1c-6.6,2.2-12.6,2.7-17.8,1.4
	c-5.2-1.3-9.6-4.3-13.1-9c-3.2-4.3-6.2-10.3-9-18.1l9.9-5.7l11.3,7.2l0.8-1.3l-1.7-1.1c-0.9-0.6-1.7-1.3-2.3-2.2
	c-0.6-0.9-1-1.8-1-2.7c0-0.9,0.9-2.7,2.7-5.6l19.8-31.1c0.4-0.7,0.8-1.2,1.2-1.8c0,0.1,0,0.1,0.1,0.2l7.9,20.6
	c0.8,2.2,1,3.7,0.5,4.4c-0.5,0.8-1.2,1.3-2.1,1.7l-1.1,0.4l0.3,0.9l13.7-5.3l-0.3-0.9l-1.1,0.4c-1.2,0.5-2.2,0.5-3,0.1
	c-0.8-0.4-1.5-1.6-2.3-3.6l-7.9-20.6c-0.2-0.6-0.4-1.2-0.6-1.7c0.1,0,0.1,0,0.2,0c1.5-0.1,3,0.3,4.4,1.2l1.7,1.1l0.8-1.3l-6.7-4.3
	c0.4-0.4,1-0.7,1.8-1l1.1-0.4l-0.3-0.9l-3.9,1.5l-12.6-8l-0.8,1.3l1.7,1.1c1.9,1.2,2.9,2.5,3.1,3.9c0.2,1.4-0.6,3.6-2.6,6.6
	l-19.8,31.1c-1.5,2.3-2.8,3.9-4,4.7c-0.7-0.8-1.6-2.2-2.8-4.2l-17.4-30.3c20.8-2,39.4-10.5,55.8-25.5c0.1,0.2,0.2,0.4,0.2,0.7
	L195.9,234.2z M161.3,167.2c-17.8,17.8-35.3,28.3-52.4,31.6c-17.2,3.3-32.4-1.7-45.7-15c-12.6-12.6-17-27.8-13.1-45.7
	C53.9,120.3,65,102.2,83.2,84c13.3-13.3,26.2-22.6,38.6-27.7c12.4-5.1,23.5-6.7,33.3-4.8c9.8,1.9,18.5,6.6,26,14.1
	C208.4,92.9,201.7,126.8,161.3,167.2z M214,193.1c0,1.9,0,3.5-0.3,4.7c-1-0.3-2.6-1.2-4.9-2.9L189.6,181c9-10.2,15.5-21.3,19.4-33.3
	c1.8,0.1,2.9,0.6,3.7,1.5c0.9,1.1,1.3,3.4,1.3,7V193.1z"/>
</svg>
