<svg width="40px" height="40px" viewBox="0 0 40 40" version="1.1" xmlns="http://www.w3.org/2000/svg" xmlns:xlink="http://www.w3.org/1999/xlink">
    <!-- Generator: Sketch 49 (51002) - http://www.bohemiancoding.com/sketch -->
    <desc>Created with Sketch.</desc>
    <defs></defs>
    <g id="Page-1" stroke="none" stroke-width="1" fill="none" fill-rule="evenodd">
        <g id="Blog" transform="translate(-1188.000000, -1834.000000)">
            <g id="Group-7" transform="translate(1188.000000, 1834.000000)">
                <g id="_x31_0_x2013_20_x25__Black_Tint" fill="#292F33" fill-rule="nonzero" opacity="0.15">
                    <rect id="Rectangle-path" x="0" y="0" width="40" height="40"></rect>
                </g>
                <g id="github" transform="translate(9.000000, 10.000000)" fill="#FFFFFF">
                    <path d="M11.0363814,0 C4.9295837,0 0,4.81592986 0,10.7819325 C0,15.5259828 3.16376268,19.5512377 7.57831525,20.9888287 C8.16692225,21.0607082 8.31407401,20.77319 8.31407401,20.4856718 C8.31407401,20.1981536 8.31407401,19.5512377 8.31407401,18.6168035 C5.22388721,19.2637195 4.56170432,17.1792125 4.56170432,17.1792125 C4.04667319,15.9572601 3.31091443,15.5978624 3.31091443,15.5978624 C2.28085216,14.9509464 3.3844903,14.9509464 3.3844903,14.9509464 C4.48812845,15.022826 5.07673546,16.0291397 5.07673546,16.0291397 C6.03322185,17.6823693 7.65189112,17.1792125 8.31407401,16.8916943 C8.38764988,16.1728988 8.68195339,15.7416215 9.04983277,15.4541033 C6.62182886,15.1665851 4.04667319,14.2321509 4.04667319,10.1350166 C4.04667319,8.98494377 4.48812845,7.97863007 5.15031133,7.25983457 C5.00315958,6.97231637 4.6352802,5.89412312 5.22388721,4.38465256 C5.22388721,4.38465256 6.1803736,4.09713436 8.24049813,5.46284582 C9.12340864,5.24720716 10.079895,5.10344806 11.0363814,5.10344806 C11.9928678,5.10344806 12.9493542,5.24720716 13.8322647,5.46284582 C15.9659651,4.09713436 16.8488756,4.38465256 16.8488756,4.38465256 C17.4374827,5.89412312 17.0696033,6.97231637 16.9224515,7.25983457 C17.6582103,7.97863007 18.0260897,8.98494377 18.0260897,10.1350166 C18.0260897,14.3040305 15.450934,15.1665851 13.0229301,15.4541033 C13.3908095,15.813501 13.7586888,16.460417 13.7586888,17.4667307 C13.7586888,18.9043217 13.7586888,20.0543945 13.7586888,20.4137923 C13.7586888,20.7013105 13.9794165,21.0607082 14.4944476,20.9169491 C18.9090002,19.4793581 21.999187,15.4541033 21.999187,10.710053 C22.0727629,4.81592986 17.1431791,0 11.0363814,0 Z" id="Shape"></path>
                </g>
            </g>
        </g>
    </g>
</svg>
