
<svg width="98px" height="100px" viewBox="0 0 98 100" version="1.1" xmlns="http://www.w3.org/2000/svg" xmlns:xlink="http://www.w3.org/1999/xlink">
    <!-- Generator: Sketch 49 (51002) - http://www.bohemiancoding.com/sketch -->
    <desc>Created with Sketch.</desc>
    <defs>
        <path d="M81.5828673,34.20175 L95.3426928,34.20175 C94.7092109,33.17 92.6355062,29.767875 90.9725219,27.038625 C89.8612272,25.21425 88.9353787,23.694875 88.7520685,23.397 C88.4818147,22.9555 87.9394225,22.647125 87.4338431,22.647125 L75.0466455,22.64425 L81.5828673,34.20175 Z M61.3454943,96.8975 L95.1593826,36.51375 L81.5945519,36.51375 L74.0200329,50.449125 C73.8867278,50.694125 73.6740176,50.8625 73.4340432,50.95975 C73.4297714,50.961875 73.4260022,50.963125 73.4218561,50.96475 C73.2875458,51.0175 73.1474561,51.054375 73.0014613,51.054375 C72.9964356,51.054375 72.9917869,51.05275 72.9867613,51.05275 C72.982992,51.05275 72.9809818,51.054375 72.9775895,51.054375 L27.0204984,51.054375 L33.8277279,62.78625 L65.0255192,62.746375 L65.0263987,62.746375 C65.4371192,62.746375 65.8166806,62.963375 66.0248678,63.316625 C66.2329293,63.671 66.2370754,64.107875 66.0369293,64.466875 L47.80152,97.05125 C47.5889355,97.429125 47.1954278,97.64275 46.7892305,97.64275 C46.7217613,97.64275 46.6545433,97.629375 46.5866972,97.61675 C46.7217613,97.65825 46.8584587,97.684625 46.9940253,97.684625 C47.1785919,97.69475 47.6409508,97.683375 48.3461738,97.683375 C50.0263709,97.683375 52.9260395,97.684625 55.4327032,97.686375 L60.0907176,97.687625 C60.7631483,97.686375 61.1440918,97.25775 61.3454943,96.8975 Z M45.6825845,96.933875 C45.726182,97.00475 45.7862384,97.065 45.8423999,97.128375 C45.6058179,96.778125 45.5597076,96.316 45.7799563,95.92225 L63.0511965,65.061 L49.7586299,65.07775 C48.1015507,68.047375 39.4128473,83.623625 38.9651884,84.42375 C38.661891,84.967125 38.7298628,85.54525 38.9219679,85.851875 C39.1920961,86.285875 41.5900802,90.218625 43.462508,93.2915 C44.5738027,95.11625 45.4996512,96.635625 45.6825845,96.933875 Z M25.0202937,76.33575 C25.9092038,74.695625 30.7568105,65.612625 31.7317847,63.784875 L25.0361245,52.245875 L18.4006463,64.627375 L25.0202937,76.33575 Z M17.0253799,77.35375 C19.395723,77.3545 21.7626738,77.355375 22.9376685,77.35575 L16.4024518,65.797875 L2.64162112,65.797875 C3.30952868,66.886125 5.59217439,70.63125 7.29498688,73.425875 L9.23149163,76.603875 C9.5028762,77.0445 10.0411222,77.352375 10.5407965,77.352375 L10.5450683,77.352375 C10.9931041,77.35375 13.9989394,77.35375 17.0253799,77.35375 Z M36.6384427,3.103375 C36.2701889,3.761 6.65057419,56.654875 2.82543391,63.485875 L16.385239,63.485875 L23.9601349,49.35275 C24.0649195,49.158375 24.2256144,49.023875 24.4022656,48.9205 C24.432922,48.901125 24.4648348,48.886875 24.4962451,48.871 C24.5633374,48.83875 24.6275399,48.804875 24.6992809,48.786375 C24.7995424,48.758375 24.9044527,48.742 25.0118757,48.742 L70.7860335,48.742 C70.037967,47.444125 68.9812005,45.60225 67.8787007,43.681 C66.4551882,41.20025 64.8886962,38.468375 64.1604809,37.213375 L33.738774,37.253125 L33.7375176,37.253125 C33.7357587,37.253125 33.7337484,37.251875 33.7319894,37.251875 L32.9584178,37.253125 L32.9571614,37.253125 L32.9567845,37.253125 L32.955905,37.253125 C32.8233537,37.253125 32.6904255,37.220875 32.5598845,37.173125 C32.5288512,37.161375 32.4981948,37.1505 32.4684179,37.13625 C32.4429128,37.1245 32.415523,37.1195 32.3907717,37.10525 C32.3451641,37.080125 32.3173974,37.03825 32.2766897,37.007625 C32.2129897,36.9595 32.1513,36.91425 32.0980282,36.854375 C32.0476462,36.797 32.0107077,36.7345 31.9733923,36.669625 C31.9369564,36.607125 31.9012744,36.54775 31.8769,36.478625 C31.8500129,36.4015 31.8395847,36.323625 31.8290308,36.24275 C31.8223719,36.192875 31.7992539,36.14925 31.7992539,36.09825 C31.7992539,36.076375 31.8110642,36.058375 31.8119436,36.036625 C31.8160898,35.960375 31.8374488,35.887875 31.8567975,35.8125 C31.8769,35.735875 31.8941129,35.660875 31.9285385,35.59125 C31.9382129,35.572 31.9369564,35.550625 31.9477616,35.531375 L50.2231247,2.963375 C50.4747836,2.512625 50.9811168,2.312 51.4639552,2.4125 C51.3062758,2.355625 51.1443245,2.315375 50.9836297,2.315375 L37.893345,2.312 C37.2216682,2.312 36.8394683,2.741875 36.6384427,3.103375 Z M52.302232,3.06475 C52.280873,3.029625 52.2472012,3.001125 52.2224499,2.967625 C52.4146807,3.30775 52.4478499,3.728375 52.2421756,4.0945 L34.9348764,34.938625 L48.225684,34.9215 L59.0187486,15.57575 C59.3229255,15.0325 59.2549537,14.454375 59.0628486,14.14725 C58.7746281,13.686875 56.0803825,9.26475 54.1720213,6.133375 L52.302232,3.06475 Z M72.9628895,23.663 C72.0928256,25.23775 67.4758957,33.653375 66.1611882,36.05 C66.8138932,37.17525 68.1291032,39.465875 69.887826,42.532 C70.9878129,44.4485 72.108782,46.402375 72.86891,47.721125 L79.5834164,35.368875 L72.9628895,23.663 Z M97.4777104,33.254625 C97.8409385,33.836875 97.9971103,34.5315 97.9752487,35.23525 C97.9798974,35.2775 98,35.314375 98,35.3575 C98,35.52175 97.963941,35.676375 97.9026282,35.8175 C97.835159,36.187 97.7230872,36.54775 97.5476924,36.892 L97.5884001,36.914625 L63.3666811,98.02525 C62.6682428,99.276125 61.4742763,99.99625 60.0939843,100 L55.4314467,99.99875 C51.8827167,99.995 47.5414432,99.991625 47.0044535,99.99625 L46.9952817,99.99625 C45.6884897,99.99625 44.3996643,99.269375 43.7087644,98.140375 C43.5258311,97.844625 42.5986005,96.321875 41.4840392,94.492875 C39.6175165,91.430125 37.2270708,87.50825 36.9569426,87.0755 C36.2752146,85.98425 36.2709428,84.500875 36.9434991,83.29725 C37.3499477,82.570875 44.5422668,69.677375 47.1055945,65.081 L33.6548459,65.098625 C32.3581051,67.5275 27.2697702,77.063375 26.9168446,77.693375 C26.214637,78.946375 25.0206706,79.667 23.641635,79.66775 L22.809389,79.66775 C20.3832613,79.66775 13.7220267,79.6645 11.3487938,79.6645 C10.929781,79.6645 10.6629196,79.671625 10.5395401,79.6645 C9.23739676,79.6645 7.94945086,78.938875 7.2576715,77.81075 L5.31739752,74.62825 C3.41820815,71.5115 0.789798404,67.199125 0.505849741,66.744125 C-0.149870644,65.692625 -0.162937308,64.28475 0.43662155,63.1075 L0.396290788,63.085375 C0.396290788,63.085375 34.2232457,2.679875 34.616879,1.975625 C35.320343,0.720125 36.5139325,0 37.893345,0 L50.9836297,0.003375 C52.2921807,0.003375 53.5842727,0.731375 54.2760521,1.857875 L56.1504902,4.931125 C58.0534488,8.0545 60.7392765,12.46325 61.0274969,12.924 C61.709225,14.016625 61.7137481,15.5 61.040061,16.703125 L50.8787194,34.918125 L64.1516861,34.901375 C65.5868832,32.28475 70.7288668,22.913125 71.0683488,22.306125 C71.7689231,21.051875 72.9628895,20.33175 74.3435584,20.33175 L87.4338431,20.335125 C88.7440274,20.335125 90.0366221,21.06325 90.7258886,22.190125 C90.9091988,22.485875 91.8364294,24.008625 92.9509907,25.837625 C94.8175134,28.900375 97.2075822,32.82225 97.4777104,33.254625 Z" id="path-1"></path>
    </defs>
    <g id="final" stroke="none" stroke-width="1" fill="none" fill-rule="evenodd">
        <g id="footer_light-bg" transform="translate(-1226.000000, -133.000000)">
            <g id="logo" transform="translate(1226.000000, 133.000000)">
                <mask id="mask-2" fill="white">
                    <use xlink:href="#path-1"></use>
                </mask>
                <g id="Clip-218"></g>
                <polygon id="Fill-217" fill="#00F9CA" mask="url(#mask-2)" points="-6 107 105 107 105 -6 -6 -6"></polygon>
            </g>
        </g>
    </g>
</svg>