
<svg width="99px" height="100px" viewBox="0 0 99 100" version="1.1" xmlns="http://www.w3.org/2000/svg" xmlns:xlink="http://www.w3.org/1999/xlink">
    <!-- Generator: Sketch 49 (51002) - http://www.bohemiancoding.com/sketch -->
    <desc>Created with Sketch.</desc>
    <defs>
        <path d="M99,35.3575002 L99,100 L0,100 L0,0 L99,0 L99,35.3575002 C99,35.5217 98.964,35.6764 98.903,35.8175 C98.835,36.187 98.723,36.5478 98.548,36.892 L98.588,36.9146 L64.367,98.0252 C63.668,99.2761 62.474,99.9963 61.094,100 L56.431,99.9987 C52.883,99.995 48.541,99.9916 48.004,99.9963 L47.995,99.9963 C46.688,99.9963 45.4,99.2694 44.709,98.1404 C44.526,97.8446 43.599,96.3219 42.484,94.4929 C40.618,91.4301 38.227,87.5082 37.957,87.0755 C37.275,85.9842 37.271,84.5009 37.943,83.2972 C38.35,82.5709 45.542,69.6774 48.106,65.081 L34.655,65.0986 C33.358,67.5275 28.27,77.0634 27.917,77.6934 C27.215,78.9464 26.021,79.667 24.642,79.6677 L23.809,79.6677 C21.383,79.6677 14.722,79.6645 12.349,79.6645 C11.93,79.6645 11.663,79.6716 11.54,79.6645 C10.237,79.6645 8.949,78.9389 8.258,77.8108 L6.317,74.6282 C4.418,71.5115 1.79,67.1991 1.506,66.7441 C0.85,65.6926 0.837,64.2847 1.437,63.1075 L1.396,63.0854 C1.396,63.0854 35.223,2.6799 35.617,1.9756 C36.32,0.7201 37.514,0 38.893,0 L51.984,0.0034 C53.292,0.0034 54.584,0.7314 55.276,1.8579 L57.15,4.9311 C59.053,8.0545 61.739,12.4633 62.027,12.924 C62.709,14.0166 62.714,15.5 62.04,16.7031 L51.879,34.9181 L65.152,34.9014 C66.587,32.2847 71.729,22.9131 72.068,22.3061 C72.769,21.0519 73.963,20.3317 75.344,20.3317 L88.434,20.3351 C89.744,20.3351 91.037,21.0632 91.726,22.1901 C91.909,22.4859 92.836,24.0086 93.951,25.8376 C95.818,28.9004 98.208,32.8222 98.478,33.2546 C98.841,33.8369 98.997,34.5315 98.975,35.2353 C98.98,35.2775 99,35.3144 99,35.3575 L99,35.3575002 Z M82.583,34.2018 L76.047,22.6442 L88.434,22.6471 C88.939,22.6471 89.482,22.9555 89.752,23.397 C89.935,23.6949 90.861,25.2142 91.973,27.0386 C93.636,29.7679 95.709,33.17 96.343,34.2018 L82.583,34.2018 Z M62.345,96.8975 C62.144,97.2577 61.763,97.6864 61.091,97.6876 L56.433,97.6864 C53.926,97.6846 51.026,97.6834 49.346,97.6834 C48.641,97.6834 48.179,97.6947 47.994,97.6846 C47.858,97.6846 47.722,97.6582 47.587,97.6167 C47.655,97.6294 47.722,97.6427 47.789,97.6427 C48.195,97.6427 48.589,97.4291 48.802,97.0512 L67.037,64.4669 C67.237,64.1079 67.233,63.671 67.025,63.3166 C66.817,62.9634 66.437,62.7464 66.026,62.7464 L34.828,62.7862 L28.02,51.0544 L73.978,51.0544 C73.981,51.0544 73.983,51.0528 73.987,51.0528 C73.992,51.0528 73.996,51.0544 74.001,51.0544 C74.147,51.0544 74.288,51.0175 74.422,50.9647 C74.426,50.9631 74.43,50.9619 74.434,50.9597 C74.674,50.8625 74.887,50.6941 75.02,50.4491 L82.595,36.5138 L96.159,36.5138 L62.345,96.8975 Z M46.683,96.9339 C46.5,96.6356 45.574,95.1163 44.463,93.2915 C42.59,90.2186 40.192,86.2859 39.922,85.8519 C39.73,85.5452 39.662,84.9671 39.965,84.4237 C40.413,83.6236 49.102,68.0474 50.759,65.0777 L64.051,65.061 L46.78,95.9222 C46.56,96.316 46.606,96.7781 46.842,97.1284 C46.786,97.065 46.726,97.0047 46.683,96.9339 Z M26.02,76.3357 L19.401,64.6274 L26.036,52.2459 L32.732,63.7849 C31.757,65.6126 26.909,74.6956 26.02,76.3357 Z M18.025,77.3537 C14.999,77.3537 11.993,77.3537 11.545,77.3524 L11.541,77.3524 C11.041,77.3524 10.503,77.0445 10.231,76.6039 L8.295,73.4259 C6.592,70.6312 4.31,66.8861 3.642,65.7979 L17.402,65.7979 L23.938,77.3557 C22.763,77.3554 20.396,77.3545 18.025,77.3537 Z M37.638,3.1034 C37.839,2.7419 38.222,2.312 38.893,2.312 L51.984,2.3154 C52.144,2.3154 52.306,2.3556 52.464,2.4125 C51.981,2.312 51.475,2.5126 51.223,2.9634 L32.948,35.5314 C32.937,35.5506 32.938,35.572 32.929,35.5913 C32.894,35.6609 32.877,35.7359 32.857,35.8125 C32.837,35.8879 32.816,35.9604 32.812,36.0366 C32.811,36.0584 32.799,36.0764 32.799,36.0983 C32.799,36.1492 32.822,36.1929 32.829,36.2428 C32.84,36.3236 32.85,36.4015 32.877,36.4786 C32.901,36.5478 32.937,36.6071 32.973,36.6696 C33.011,36.7345 33.048,36.797 33.098,36.8544 C33.151,36.9142 33.213,36.9595 33.277,37.0076 C33.317,37.0382 33.345,37.0801 33.391,37.1052 C33.416,37.1195 33.443,37.1245 33.468,37.1363 C33.498,37.1505 33.529,37.1614 33.56,37.1731 C33.69,37.2209 33.823,37.2531 33.956,37.2531 L33.957,37.2531 L33.958,37.2531 L34.732,37.2519 C34.734,37.2519 34.736,37.2531 34.738,37.2531 L34.739,37.2531 L65.16,37.2134 C65.889,38.4684 67.455,41.2002 68.879,43.681 C69.981,45.6022 71.038,47.4441 71.786,48.742 L26.012,48.742 C25.904,48.742 25.8,48.7584 25.699,48.7864 C25.628,48.8049 25.563,48.8387 25.496,48.871 C25.465,48.8869 25.433,48.9011 25.402,48.9205 C25.226,49.0239 25.065,49.1584 24.96,49.3527 L17.385,63.4859 L3.825,63.4859 C7.651,56.6549 37.27,3.761 37.638,3.1034 Z M53.302,3.0648 L55.172,6.1334 C57.08,9.2647 59.775,13.6869 60.063,14.1472 C60.255,14.4544 60.323,15.0325 60.019,15.5757 L49.226,34.9215 L35.935,34.9386 L53.242,4.0945 C53.448,3.7284 53.415,3.3077 53.222,2.9676 C53.247,3.0011 53.281,3.0296 53.302,3.0648 Z M73.963,23.663 L80.583,35.3689 L73.869,47.7211 C73.109,46.4024 71.988,44.4485 70.888,42.532 C69.129,39.4659 67.814,37.1752 67.161,36.05 C68.476,33.6534 73.093,25.2378 73.963,23.663 Z" id="path-1"></path>
    </defs>
    <g id="Page-1" stroke="none" stroke-width="1" fill="none" fill-rule="evenodd">
        <g id="footer_light-bg_redlines" transform="translate(-1211.000000, -132.000000)">
            <g id="Group-35" transform="translate(1211.000000, 132.000000)">
                <mask id="mask-2" fill="white">
                    <use xlink:href="#path-1"></use>
                </mask>
                <g id="Clip-34"></g>
                <polygon id="Fill-33" fill="#00F9CA" mask="url(#mask-2)" points="-10 112 111 112 111 -11 -10 -11"></polygon>
            </g>
        </g>
    </g>
</svg>