<svg width="78px" height="80px" viewBox="0 0 78 80" version="1.1" xmlns="http://www.w3.org/2000/svg" xmlns:xlink="http://www.w3.org/1999/xlink">
    <!-- Generator: Sketch 49 (51002) - http://www.bohemiancoding.com/sketch -->
    <desc>Created with Sketch.</desc>
    <defs></defs>
    <g id="Page-1" stroke="none" stroke-width="1" fill="none" fill-rule="evenodd">
        <g id="Blog" transform="translate(-130.000000, -1734.000000)" fill="#00F9CA">
            <path d="M194.933258,1761.3614 L189.731003,1752.11537 L199.590244,1752.11772 C199.992601,1752.11772 200.424342,1752.36438 200.639377,1752.71761 C200.785294,1752.95589 201.522224,1754.17142 202.406741,1755.63093 C203.730344,1757.81434 205.380842,1760.53596 205.88504,1761.3614 L194.933258,1761.3614 Z M178.825968,1811.51799 C178.665693,1811.80621 178.362507,1812.14905 177.827256,1812.15006 L174.119898,1812.14905 C172.12481,1812.14771 169.816852,1812.14671 168.479558,1812.14671 C167.918262,1812.14671 167.550298,1812.15575 167.403379,1812.14771 C167.295528,1812.14771 167.186674,1812.1266 167.079157,1812.09342 C167.133249,1812.10347 167.186674,1812.1142 167.240433,1812.1142 C167.563654,1812.1142 167.876858,1811.94328 168.046148,1811.64099 L182.560039,1785.57354 C182.719312,1785.28633 182.715973,1784.93679 182.550355,1784.65326 C182.384738,1784.37074 182.082553,1784.19714 181.755659,1784.19714 L181.754991,1784.19714 L156.924075,1784.22898 L151.506116,1774.84353 L188.084179,1774.84353 C188.08685,1774.84353 188.08852,1774.84219 188.091525,1774.84219 C188.095532,1774.84219 188.099205,1774.84353 188.103212,1774.84353 C188.219411,1774.84353 188.330935,1774.81404 188.437785,1774.77182 C188.441124,1774.77047 188.44413,1774.76947 188.447469,1774.76779 C188.638463,1774.69004 188.807753,1774.55532 188.913935,1774.35926 L194.942607,1763.21101 L205.739123,1763.21101 L178.825968,1811.51799 Z M166.359589,1811.54715 C166.214006,1811.30853 165.477076,1810.093 164.592559,1808.63315 C163.102337,1806.17494 161.19373,1803.0287 160.978695,1802.6815 C160.825766,1802.43618 160.771673,1801.97369 161.013087,1801.53902 C161.369365,1800.89892 168.284891,1788.43794 169.60382,1786.06217 L180.18363,1786.04876 L166.437055,1810.7378 C166.261755,1811.05283 166.298484,1811.42248 166.486807,1811.70265 C166.442064,1811.65205 166.394315,1811.60379 166.359589,1811.54715 Z M149.914053,1795.06858 L144.645351,1785.7019 L149.926741,1775.79666 L155.25588,1785.02794 C154.479883,1786.49013 150.621599,1793.75652 149.914053,1795.06858 Z M143.550807,1795.88295 C141.142009,1795.88295 138.749573,1795.88295 138.392961,1795.88195 L138.389622,1795.88195 C137.99194,1795.88195 137.563539,1795.63562 137.347502,1795.28306 L135.806192,1792.74073 C134.450868,1790.50505 132.634085,1787.50894 132.102507,1786.63826 L143.054956,1786.63826 L148.256544,1795.88463 C147.321273,1795.88429 145.437376,1795.88362 143.550807,1795.88295 Z M159.161244,1736.48268 C159.321185,1736.19346 159.625374,1735.84961 160.159957,1735.84961 L170.578825,1735.85229 C170.706711,1735.85229 170.835599,1735.88446 170.961147,1735.93004 C170.576821,1735.84961 170.173797,1736.01014 169.973453,1736.37074 L155.427842,1762.42512 C155.41916,1762.44053 155.420162,1762.45763 155.412482,1762.47304 C155.385102,1762.52867 155.371412,1762.58866 155.355384,1762.64999 C155.340025,1762.71032 155.322995,1762.7683 155.319656,1762.82929 C155.318989,1762.84672 155.309639,1762.86113 155.309639,1762.87856 C155.309639,1762.91944 155.328004,1762.9543 155.333347,1762.99418 C155.341694,1763.05886 155.350042,1763.12119 155.371412,1763.18286 C155.390778,1763.23816 155.41916,1763.28574 155.44821,1763.33568 C155.477928,1763.38763 155.507312,1763.43756 155.54738,1763.48347 C155.589786,1763.5314 155.63887,1763.56759 155.689624,1763.60613 C155.722013,1763.6306 155.744051,1763.66411 155.780447,1763.68422 C155.800147,1763.69561 155.821851,1763.69964 155.842219,1763.70902 C155.865927,1763.72041 155.890302,1763.72913 155.915011,1763.73851 C156.018855,1763.77672 156.124704,1763.80252 156.230218,1763.80252 L156.230886,1763.80252 L156.23122,1763.80252 L156.232221,1763.80252 L156.847944,1763.80152 C156.84928,1763.80152 156.850949,1763.80252 156.852285,1763.80252 L156.853286,1763.80252 L181.066477,1763.77068 C181.646138,1764.77475 182.892943,1766.96016 184.025886,1768.94483 C184.903391,1770.48176 185.7445,1771.95534 186.339854,1772.99359 L149.907375,1772.99359 C149.821895,1772.99359 149.738418,1773.00666 149.658615,1773.02911 C149.601517,1773.04386 149.550429,1773.07101 149.497004,1773.09681 C149.471961,1773.10955 149.446584,1773.12094 149.422209,1773.13636 C149.281635,1773.21914 149.153749,1773.32671 149.070272,1773.48222 L143.041266,1784.78866 L132.248758,1784.78866 C135.293312,1779.32395 158.868075,1737.00884 159.161244,1736.48268 Z M171.628291,1736.45185 L173.11651,1738.90671 C174.635448,1741.41184 176.779793,1744.94952 177.009186,1745.31783 C177.162115,1745.56349 177.216208,1746.02597 176.974126,1746.46064 L168.383727,1761.93716 L157.805252,1761.9509 L171.580543,1737.27561 C171.744157,1736.9827 171.717778,1736.64622 171.564849,1736.37409 C171.58455,1736.4009 171.611262,1736.42369 171.628291,1736.45185 Z M188.072492,1752.93042 L193.341862,1762.29509 L187.997697,1772.17687 C187.39266,1771.12186 186.500463,1769.5588 185.624961,1768.02555 C184.225228,1765.5727 183.178432,1763.74019 182.658875,1762.84002 C183.705336,1760.92271 187.379971,1754.19019 188.072492,1752.93042 Z M207.584287,1760.60366 C207.369252,1760.2578 205.466989,1757.12027 203.981442,1754.6701 C203.094254,1753.2069 202.356321,1751.98869 202.210405,1751.75208 C201.661797,1750.85057 200.633033,1750.26811 199.590244,1750.26811 L189.171377,1750.26543 C188.072492,1750.26543 187.122196,1750.84152 186.564573,1751.84492 C186.294443,1752.33053 182.201758,1759.82782 181.059465,1761.92108 L170.495348,1761.93448 L178.582885,1747.36249 C179.119138,1746.39998 179.115465,1745.21327 178.572868,1744.33924 C178.343474,1743.97059 176.205808,1740.44363 174.691211,1737.94487 L173.199319,1735.48632 C172.648708,1734.58515 171.620278,1734.00268 170.578825,1734.00268 L160.159957,1734 C159.062074,1734 158.112112,1734.5761 157.552152,1735.5805 C157.238948,1736.14386 130.315442,1784.46827 130.315442,1784.46827 L130.347497,1784.48603 C129.870346,1785.42776 129.880697,1786.55415 130.402592,1787.39533 C130.628646,1787.75929 132.720567,1791.20917 134.232159,1793.70257 L135.776474,1796.24859 C136.327085,1797.1511 137.352177,1797.73156 138.388621,1797.73156 C138.486789,1797.73725 138.699153,1797.73156 139.032725,1797.73156 C140.921631,1797.73156 146.22339,1797.73424 148.154368,1797.73424 L148.816838,1797.73424 C149.914387,1797.73357 150.864683,1797.15714 151.423642,1796.15475 C151.704457,1795.65071 155.754402,1788.02204 156.786505,1786.07892 L167.492198,1786.06485 C165.452033,1789.74195 159.727549,1800.05672 159.403994,1800.63785 C158.868743,1801.60069 158.872082,1802.7874 159.414679,1803.66042 C159.629715,1804.00662 161.532311,1807.14415 163.017858,1809.59432 C163.905046,1811.05752 164.642979,1812.27573 164.788562,1812.51234 C165.338505,1813.41553 166.364264,1813.99698 167.404381,1813.99698 L167.411727,1813.99698 C167.839127,1813.9933 171.294385,1813.99598 174.118896,1813.99899 L177.829927,1814 C178.928477,1813.99698 179.878774,1813.42089 180.434727,1812.42018 L207.672438,1763.53173 L207.640049,1763.51364 C207.779622,1763.23816 207.868775,1762.9496 207.922534,1762.65402 C207.971284,1762.54107 208,1762.41741 208,1762.28604 C208,1762.25152 207.983973,1762.22203 207.9803,1762.18818 C207.997663,1761.62515 207.87345,1761.0695 207.584287,1760.60366 Z" id="Fill-4"></path>
        </g>
    </g>
</svg>
