<svg width="40px" height="40px" viewBox="0 0 40 40" version="1.1" xmlns="http://www.w3.org/2000/svg" xmlns:xlink="http://www.w3.org/1999/xlink">
    <!-- Generator: Sketch 49 (51002) - http://www.bohemiancoding.com/sketch -->
    <desc>Created with Sketch.</desc>
    <defs></defs>
    <g id="Page-1" stroke="none" stroke-width="1" fill="none" fill-rule="evenodd">
        <g id="Blog" transform="translate(-1084.000000, -1851.000000)" fill-rule="nonzero">
            <g id="Group-8" transform="translate(1084.000000, 1851.000000)">
                <g id="_x31_0_x2013_20_x25__Black_Tint" fill="#292F33" opacity="0.15">
                    <rect id="Rectangle-path" x="0" y="0" width="40" height="40"></rect>
                </g>
                <g id="Logo__x2014__FIXED" transform="translate(8.000000, 10.000000)" fill="#FFFFFF">
                    <path d="M7.86,20.36 C17.29,20.36 22.45,12.54 22.45,5.77 C22.45,5.55 22.45,5.33 22.44,5.11 C23.44,4.39 24.31,3.48 25,2.45 C24.08,2.86 23.09,3.13 22.05,3.26 C23.11,2.63 23.92,1.62 24.31,0.42 C23.32,1.01 22.22,1.43 21.05,1.66 C20.11,0.66 18.78,0.04 17.31,0.04 C14.48,0.04 12.18,2.34 12.18,5.17 C12.18,5.57 12.23,5.96 12.31,6.34 C8.05,6.13 4.27,4.08 1.74,0.98 C1.3,1.74 1.05,2.62 1.05,3.56 C1.05,5.34 1.96,6.91 3.33,7.83 C2.49,7.8 1.7,7.57 1.01,7.19 C1.01,7.21 1.01,7.23 1.01,7.26 C1.01,9.74 2.78,11.82 5.12,12.29 C4.69,12.41 4.24,12.47 3.77,12.47 C3.44,12.47 3.12,12.44 2.81,12.38 C3.46,14.42 5.36,15.9 7.6,15.94 C5.84,17.32 3.63,18.14 1.23,18.14 C0.82,18.14 0.41,18.12 0.01,18.07 C2.27,19.51 4.97,20.36 7.86,20.36" id="Shape"></path>
                </g>
            </g>
        </g>
    </g>
</svg>
