<svg width="30px" height="30px" viewBox="0 0 30 30" version="1.1" xmlns="http://www.w3.org/2000/svg" xmlns:xlink="http://www.w3.org/1999/xlink">
    <!-- Generator: Sketch 49 (51002) - http://www.bohemiancoding.com/sketch -->
    <desc>Created with Sketch.</desc>
    <defs>
        <path d="M0,15.0003 C0,6.7161 6.716,0 15,0 C23.284,0 30,6.7158 30,15.0003 C30,23.284 23.284,30 15,30 C6.716,30 0,23.2836 0,15.0003 Z M2.551,15.0076 C2.551,21.8852 8.126,27.4608 15.006,27.4608 C21.882,27.4608 27.459,21.8841 27.459,15.0076 C27.459,8.1282 21.883,2.551 15.006,2.551 C8.126,2.551 2.551,8.1272 2.551,15.0076 Z M20.672,11.2695 C20.918,11.5149 20.918,11.9085 20.672,12.1539 C20.427,12.3994 20.033,12.3994 19.792,12.1539 L15.773,8.1347 L15.773,23.3749 C15.773,23.7222 15.495,24 15.148,24 C14.801,24 14.523,23.7222 14.523,23.3749 L14.523,8.1347 L10.504,12.1539 C10.383,12.279 10.221,12.3392 10.064,12.3392 C9.906,12.3392 9.744,12.2743 9.624,12.1539 C9.378,11.9085 9.378,11.5149 9.624,11.2695 L14.708,6.1852 C14.824,6.0648 14.986,6 15.148,6 C15.31,6 15.472,6.0695 15.588,6.1852 L20.672,11.2695 Z" id="path-1"></path>
    </defs>
    <g id="Page-1" stroke="none" stroke-width="1" fill="none" fill-rule="evenodd">
        <g id="footer_light-bg-(1)" transform="translate(-1375.000000, 0.000000)">
            <g id="Group-75" transform="translate(1375.000000, 0.000000)">
                <mask id="mask-2" fill="white">
                    <use xlink:href="#path-1"></use>
                </mask>
                <g id="Clip-74"></g>
                <polygon id="Fill-73" fill="#251C47" mask="url(#mask-2)" points="-5 35 35 35 35 -5 -5 -5"></polygon>
            </g>
        </g>
    </g>
</svg>