
<svg width="30px" height="30px" viewBox="0 0 30 30" version="1.1" xmlns="http://www.w3.org/2000/svg" xmlns:xlink="http://www.w3.org/1999/xlink">
    <!-- Generator: Sketch 49 (51002) - http://www.bohemiancoding.com/sketch -->
    <desc>Created with Sketch.</desc>
    <defs>
        <path d="M0,15.0002942 C0,6.71610035 6.71610036,0 14.9997058,0 C23.2843417,0 30.0001493,6.71580769 30,15.0002942 C30,23.2839501 23.2839963,30 14.9997058,30 C6.71639457,30 0,23.2836056 0,15.0002942 Z M2.55100032,15.0075547 C2.55100032,21.8851839 8.12633057,27.4607682 15.0057451,27.4607682 C21.8822,27.4607682 27.4588194,21.8841065 27.4588194,15.0075547 C27.4588194,8.12817011 21.882708,2.55100032 15.0057451,2.55100032 C8.12596182,2.55100032 2.55100032,8.12723171 2.55100032,15.0075547 Z" id="path-1"></path>
        <path d="M20.6721814,11.2695001 L15.5879052,6.18522388 C15.4721403,6.06945896 15.3100694,6 15.1479985,6 C14.9859276,6 14.8238567,6.06482836 14.7080918,6.18522388 L9.62381559,11.2695001 C9.37839393,11.5149217 9.37839393,11.9085225 9.62381559,12.1539442 C9.74421112,12.2743397 9.90628202,12.339168 10.0637223,12.339168 C10.2211626,12.339168 10.3832335,12.2789703 10.5036291,12.1539442 L14.5228679,8.13470537 L14.5228679,23.3748695 C14.5228679,23.7221642 14.8007037,24 15.1479985,24 C15.4952933,24 15.7731292,23.7221642 15.7731292,23.3748695 L15.7731292,8.13470537 L19.7923679,12.1539442 C20.033159,12.3993658 20.4267597,12.3993658 20.6721814,12.1539442 C20.9176031,11.9085225 20.9176031,11.5149217 20.6721814,11.2695001 Z" id="path-3"></path>
    </defs>
    <g id="final" stroke="none" stroke-width="1" fill="none" fill-rule="evenodd">
        <g id="UP_icon">
            <g id="2.0-icon/info">
                <mask id="mask-2" fill="white">
                    <use xlink:href="#path-1"></use>
                </mask>
                <use id="Combined-Shape" fill="#3AFBD7" xlink:href="#path-1"></use>
                <mask id="mask-4" fill="white">
                    <use xlink:href="#path-3"></use>
                </mask>
                <use id="Shape" fill="#00F9CA" xlink:href="#path-3"></use>
            </g>
        </g>
    </g>
</svg>