<svg width="40px" height="40px" viewBox="0 0 40 40" version="1.1" xmlns="http://www.w3.org/2000/svg" xmlns:xlink="http://www.w3.org/1999/xlink">
    <!-- Generator: Sketch 49 (51002) - http://www.bohemiancoding.com/sketch -->
    <desc>Created with Sketch.</desc>
    <defs></defs>
    <g id="Page-1" stroke="none" stroke-width="1" fill="none" fill-rule="evenodd">
        <g id="Blog" transform="translate(-1132.000000, -1858.000000)">
            <g id="Group-6" transform="translate(1132.000000, 1858.000000)">
                <g id="_x31_0_x2013_20_x25__Black_Tint" fill="#292F33" fill-rule="nonzero" opacity="0.15">
                    <rect id="Rectangle-path" x="0" y="0" width="40" height="40"></rect>
                </g>
                <g id="Group-5" transform="translate(7.000000, 11.000000)">
                    <path d="M25.3491475,2.77911628 C25.0514262,1.68530233 24.1742459,0.823604651 23.0602951,0.531209302 C21.0412459,0 12.9450164,0 12.9450164,0 C12.9450164,0 4.849,0 2.82995082,0.531209302 C1.716,0.823604651 0.838819672,1.68530233 0.541098361,2.77911628 C0,4.76225581 0,8.89932558 0,8.89932558 C0,8.89932558 0,13.0366047 0.541098361,15.0195349 C0.838819672,16.1133488 1.716,16.9752558 2.82995082,17.2674419 C4.849,17.7988605 12.9450164,17.7988605 12.9450164,17.7988605 C12.9450164,17.7988605 21.0412459,17.7988605 23.0602951,17.2674419 C24.1742459,16.9752558 25.0514262,16.1133488 25.3491475,15.0195349 C25.8900328,13.0366047 25.8900328,8.89932558 25.8900328,8.89932558 C25.8900328,8.89932558 25.8900328,4.76225581 25.3491475,2.77911628" id="Fill-9" fill="#FFFFFF"></path>
                    <polyline id="Fill-11" fill="#251C47" points="10.442623 12.6514884 10.442623 5.02325581 17.1687377 8.8375814 10.442623 12.6514884"></polyline>
                </g>
            </g>
        </g>
    </g>
</svg>
