<?xml version="1.0" encoding="UTF-8"?>
<svg width="194px" height="68px" viewBox="0 0 194 68" version="1.1" xmlns="http://www.w3.org/2000/svg" xmlns:xlink="http://www.w3.org/1999/xlink">
    <!-- Generator: Sketch 48.2 (47327) - http://www.bohemiancoding.com/sketch -->
    <title>Page 1 Copy</title>
    <desc>Created with Sketch.</desc>
    <defs>
        <polygon id="path-1" points="0.0004 0.1632 65.1624 0.1632 65.1624 68 0.0004 68"></polygon>
    </defs>
    <g id="Page-1" stroke="none" stroke-width="1" fill="none" fill-rule="evenodd">
        <g id="Page-1-Copy" transform="translate(0.000000, -1.000000)">
            <g id="Group-3" transform="translate(0.000000, 0.836700)">
                <mask id="mask-2" fill="white">
                    <use xlink:href="#path-1"></use>
                </mask>
                <g id="Clip-2"></g>
                <path d="M56.2544,22.2912 L52.0254,14.8022 L60.2194,14.8042 C60.4374,14.8042 60.6924,14.9512 60.8124,15.1452 C60.9434,15.3592 61.6084,16.4532 62.4084,17.7662 C63.3644,19.3382 64.5084,21.2192 65.1624,22.2912 L56.2544,22.2912 Z M41.0984,67.6452 C40.9014,67.9992 40.6434,68.0002 40.5594,68.0002 L37.2124,67.9992 C35.4414,67.9982 33.3974,67.9972 32.1804,67.9972 L45.1994,44.7002 C45.4154,44.3132 45.4104,43.8412 45.1854,43.4592 C44.9614,43.0772 44.5524,42.8432 44.1094,42.8432 L44.1074,42.8432 L21.9194,42.8712 L17.5064,35.2572 L49.8254,35.2572 C49.8294,35.2572 49.8324,35.2562 49.8354,35.2562 C49.8374,35.2562 49.8404,35.2572 49.8424,35.2572 C49.8614,35.2572 49.8784,35.2502 49.8964,35.2492 C49.9694,35.2462 50.0414,35.2372 50.1104,35.2212 C50.1644,35.2092 50.2154,35.1912 50.2684,35.1722 C50.2954,35.1622 50.3224,35.1512 50.3484,35.1392 C50.5904,35.0312 50.8044,34.8552 50.9414,34.6042 L56.2694,24.7882 L65.0634,24.7882 L41.0984,67.6452 Z M30.0104,66.7592 C29.7284,66.2952 29.3614,65.6922 28.9614,65.0352 C27.6144,62.8212 25.8894,59.9862 25.6954,59.6752 C25.6304,59.5702 25.5994,59.3132 25.7354,59.0692 C26.0484,58.5102 31.9414,47.9322 33.3764,45.3532 L41.9794,45.3422 L30.0104,66.7592 Z M15.3384,52.1812 L11.0624,44.6072 L15.3724,36.5532 L19.6964,44.0152 C18.3534,46.5362 16.2554,50.4692 15.3384,52.1812 Z M9.5994,53.3592 C7.4214,53.3592 5.2574,53.3592 4.9384,53.3592 C4.7254,53.3592 4.4674,53.2092 4.3514,53.0182 L2.9584,50.7322 C1.9664,49.1012 0.7014,47.0222 0.0004,45.8722 L8.9084,45.8722 L13.1364,53.3612 C12.2144,53.3612 10.9074,53.3602 9.5994,53.3592 Z M24.0634,0.5192 C24.2624,0.1632 24.5184,0.1632 24.6024,0.1632 L33.0174,0.1662 L19.9634,23.4612 C19.9534,23.4812 19.9474,23.5022 19.9374,23.5222 C19.9184,23.5622 19.9004,23.6012 19.8854,23.6422 C19.8714,23.6822 19.8594,23.7212 19.8484,23.7612 C19.8384,23.7982 19.8304,23.8352 19.8244,23.8742 C19.8174,23.9202 19.8134,23.9652 19.8114,24.0122 C19.8104,24.0332 19.8044,24.0522 19.8044,24.0732 C19.8044,24.0892 19.8094,24.1042 19.8094,24.1202 C19.8114,24.1652 19.8164,24.2102 19.8234,24.2552 C19.8284,24.2932 19.8354,24.3312 19.8434,24.3672 C19.8534,24.4072 19.8664,24.4452 19.8794,24.4832 C19.8934,24.5212 19.9064,24.5602 19.9234,24.5962 C19.9404,24.6322 19.9604,24.6662 19.9814,24.7012 C20.0014,24.7352 20.0214,24.7702 20.0444,24.8022 C20.0674,24.8342 20.0944,24.8652 20.1214,24.8952 C20.1484,24.9262 20.1744,24.9552 20.2044,24.9822 C20.2334,25.0092 20.2634,25.0332 20.2954,25.0572 C20.3304,25.0842 20.3654,25.1102 20.4024,25.1332 C20.4174,25.1422 20.4284,25.1532 20.4424,25.1612 C20.4574,25.1692 20.4734,25.1712 20.4874,25.1792 C20.5524,25.2122 20.6204,25.2392 20.6914,25.2612 C20.7174,25.2692 20.7414,25.2782 20.7674,25.2842 C20.8584,25.3062 20.9524,25.3192 21.0494,25.3202 C21.0504,25.3202 21.0514,25.3202 21.0524,25.3202 L21.0534,25.3202 L21.0544,25.3202 L21.6074,25.3192 C21.6094,25.3192 21.6114,25.3202 21.6144,25.3202 L21.6154,25.3202 L43.2474,25.2922 C43.8194,26.2832 44.8884,28.1502 45.7994,29.7392 C46.4984,30.9602 47.0754,31.9682 47.5304,32.7602 L15.3404,32.7602 C15.3274,32.7602 15.3144,32.7652 15.3004,32.7652 C14.8624,32.7722 14.4404,33.0042 14.2184,33.4192 L8.8894,43.3752 L0.1004,43.3752 C3.9374,36.5132 23.8074,0.9772 24.0634,0.5192 Z M35.1694,1.4332 L35.9504,2.7142 C37.3234,4.9712 39.2614,8.1562 39.4684,8.4882 C39.5334,8.5932 39.5634,8.8492 39.4254,9.0942 L31.7864,22.8102 L23.1854,22.8202 L35.1694,1.4332 Z M49.8204,15.9742 L54.0984,23.5522 L49.7364,31.5872 C49.2174,30.6832 48.5714,29.5562 47.9654,28.4982 C46.7684,26.4072 45.8954,24.8842 45.4024,24.0322 C46.3324,22.3352 48.7914,17.8472 49.8204,15.9742 Z" id="Fill-1" fill="#00F9CA" mask="url(#mask-2)"></path>
            </g>
            <path d="M73.3262,55.912 L70.5202,55.912 L70.5202,38.659 L73.3262,38.659 L73.3262,44.688 C74.1382,43.926 75.1472,43.557 76.3282,43.557 C79.2082,43.557 81.1772,45.55 81.1772,48.897 L81.1772,55.912 L78.3712,55.912 L78.3712,48.897 C78.3712,47.199 77.4852,46.092 75.9842,46.092 C74.2862,46.092 73.3262,47.298 73.3262,49.242 L73.3262,55.912 Z" id="Fill-4" fill="#00F9CA"></path>
            <path d="M88.3428,53.7216 C89.4998,53.7216 90.4598,53.3766 91.1738,52.6876 L91.1738,51.3096 C90.3118,50.9896 89.4748,50.8176 88.6628,50.8176 C87.3588,50.8176 86.5218,51.3586 86.5218,52.3186 C86.5218,53.1306 87.1618,53.7216 88.3428,53.7216 M84.8728,55.1986 C84.1098,54.5336 83.7158,53.6226 83.7158,52.5156 C83.7158,49.8816 85.7828,48.4796 88.7368,48.4796 C89.5248,48.4796 90.3368,48.6266 91.1738,48.8976 L91.1738,48.0846 C91.1738,46.8786 90.1638,46.0916 88.8108,46.0916 C87.5548,46.0916 86.5948,46.6826 85.9558,47.8386 L84.0598,46.0676 C84.9708,44.4176 86.8658,43.5566 88.8348,43.5566 C91.9608,43.5566 93.9788,45.1316 93.9788,48.1106 L93.9788,55.9116 L91.2228,55.9116 L91.2228,54.9766 C90.3118,55.7886 89.1548,56.1826 87.7768,56.1826 C86.6198,56.1826 85.6598,55.8636 84.8728,55.1986" id="Fill-6" fill="#00F9CA"></path>
            <path d="M99.9058,55.912 L97.0998,55.912 L97.0998,43.851 L99.8568,43.851 L99.8568,44.837 C100.6198,43.974 101.6538,43.557 102.9818,43.557 C105.9608,43.557 107.7568,45.525 107.7568,48.897 L107.7568,55.912 L104.9508,55.912 L104.9508,48.897 C104.9508,47.199 104.0648,46.092 102.5638,46.092 C100.8658,46.092 99.9058,47.298 99.9058,49.242 L99.9058,55.912 Z" id="Fill-8" fill="#00F9CA"></path>
            <path d="M113.1895,49.8818 C113.1895,52.0478 114.3715,53.7218 116.4145,53.7218 C118.4815,53.7218 119.6385,52.0478 119.6385,49.8818 C119.6385,47.7158 118.4815,46.0428 116.4145,46.0428 C114.3715,46.0428 113.1895,47.7158 113.1895,49.8818 M119.5885,44.7378 L119.5885,38.6588 L122.3945,38.6588 L122.3945,55.9118 L119.6385,55.9118 L119.6385,54.8288 C118.7765,55.7398 117.6205,56.1828 116.2165,56.1828 C114.4945,56.1828 113.0915,55.5918 111.9835,54.4108 C110.8765,53.2048 110.3345,51.7028 110.3345,49.8818 C110.3345,48.0608 110.8765,46.5598 111.9835,45.3538 C113.0915,44.1478 114.4945,43.5568 116.2165,43.5568 C117.5455,43.5568 118.6785,43.9498 119.5885,44.7378" id="Fill-10" fill="#00F9CA"></path>
            <path d="M127.1993,52.663 C128.1843,52.663 128.9713,53.451 128.9713,54.435 C128.9713,55.395 128.1843,56.183 127.1993,56.183 C126.2153,56.183 125.4273,55.395 125.4273,54.435 C125.4273,53.451 126.2153,52.663 127.1993,52.663 M127.1993,43.581 C128.1843,43.581 128.9713,44.369 128.9713,45.353 C128.9713,46.313 128.1843,47.101 127.1993,47.101 C126.2153,47.101 125.4273,46.313 125.4273,45.353 C125.4273,44.369 126.2153,43.581 127.1993,43.581" id="Fill-12" fill="#00F9CA"></path>
            <path d="M135.4087,50.9648 C132.9717,50.3988 131.7417,49.1438 131.7417,47.1508 C131.7417,44.9598 133.5627,43.5568 136.1477,43.5568 C137.8947,43.5568 139.3957,44.2218 140.7007,45.5748 L138.9037,47.4948 C138.1657,46.4858 137.2307,45.9688 136.0737,45.9688 C135.0647,45.9688 134.4247,46.4858 134.4247,47.1008 C134.4247,47.6668 134.8187,48.0358 135.6057,48.2338 L137.5007,48.6758 C139.9627,49.2418 141.1927,50.4968 141.1927,52.4418 C141.1927,54.6318 139.4707,56.1828 136.4177,56.1828 C134.3257,56.1828 132.6527,55.3958 131.4217,53.8448 L133.1937,52.0238 C134.0797,53.1798 135.2367,53.7708 136.6397,53.7708 C137.9437,53.7708 138.4857,53.2298 138.4857,52.5398 C138.4857,52.0238 138.1167,51.6538 137.0087,51.3588 L135.4087,50.9648 Z" id="Fill-14" fill="#00F9CA"></path>
            <path d="M146.6128,55.912 L143.8068,55.912 L143.8068,38.659 L146.6128,38.659 L146.6128,44.688 C147.4248,43.926 148.4338,43.557 149.6148,43.557 C152.4948,43.557 154.4638,45.55 154.4638,48.897 L154.4638,55.912 L151.6578,55.912 L151.6578,48.897 C151.6578,47.199 150.7718,46.092 149.2708,46.092 C147.5728,46.092 146.6128,47.298 146.6128,49.242 L146.6128,55.912 Z" id="Fill-16" fill="#00F9CA"></path>
            <path d="M161.6294,53.7216 C162.7864,53.7216 163.7464,53.3766 164.4604,52.6876 L164.4604,51.3096 C163.5984,50.9896 162.7614,50.8176 161.9494,50.8176 C160.6454,50.8176 159.8084,51.3586 159.8084,52.3186 C159.8084,53.1306 160.4484,53.7216 161.6294,53.7216 M158.1594,55.1986 C157.3964,54.5336 157.0024,53.6226 157.0024,52.5156 C157.0024,49.8816 159.0694,48.4796 162.0234,48.4796 C162.8114,48.4796 163.6234,48.6266 164.4604,48.8976 L164.4604,48.0846 C164.4604,46.8786 163.4504,46.0916 162.0974,46.0916 C160.8414,46.0916 159.8814,46.6826 159.2424,47.8386 L157.3464,46.0676 C158.2574,44.4176 160.1524,43.5566 162.1214,43.5566 C165.2474,43.5566 167.2654,45.1316 167.2654,48.1106 L167.2654,55.9116 L164.5094,55.9116 L164.5094,54.9766 C163.5984,55.7886 162.4414,56.1826 161.0634,56.1826 C159.9064,56.1826 158.9464,55.8636 158.1594,55.1986" id="Fill-18" fill="#00F9CA"></path>
            <polygon id="Fill-20" fill="#00F9CA" points="170.4454 55.912 170.4454 38.659 173.2514 38.659 173.2514 48.528 177.4354 43.851 180.9304 43.851 176.2294 49.07 181.1524 55.912 177.9524 55.912 174.3594 51.015 173.2514 52.269 173.2514 55.912"></polygon>
            <path d="M185.2569,48.4794 L190.4009,48.4794 C190.3769,47.2234 189.5889,46.1164 187.8909,46.1164 C186.4139,46.1164 185.5279,47.1744 185.2569,48.4794 Z M193.3549,50.7184 L185.1099,50.7184 C185.2329,52.5154 186.4879,53.6474 188.2839,53.6474 C189.5889,53.6474 190.6229,53.0824 191.3849,51.9494 L193.2809,53.7214 C192.0009,55.3714 190.3269,56.1824 188.2839,56.1824 C186.4879,56.1824 185.0109,55.6174 183.9029,54.4594 C182.7959,53.3024 182.2299,51.8014 182.2299,49.9564 C182.2299,48.1594 182.7469,46.6324 183.7559,45.4024 C184.7899,44.1714 186.1679,43.5564 187.8659,43.5564 C191.7789,43.5564 193.3789,46.6824 193.3789,49.7344 L193.3549,50.7184 Z" id="Fill-22" fill="#00F9CA"></path>
        </g>
    </g>
</svg>