<?xml version="1.0" encoding="utf-8"?>
<!-- Generator: Adobe Illustrator 19.2.0, SVG Export Plug-In . SVG Version: 6.00 Build 0)  -->
<svg version="1.1" id="Layer_1" xmlns="http://www.w3.org/2000/svg" xmlns:xlink="http://www.w3.org/1999/xlink" x="0px" y="0px"
	 viewBox="0 0 512 512" style="enable-background:new 0 0 512 512;" xml:space="preserve">
<style type="text/css">
	.logocol{fill:#FF556E;}
</style>
<path class="logocol" d="M320.3,505.8c-28.3,0-53.7,0-80.7,0c-13.4-12.7-23.1-29.2-31.9-46.4c-1.7-3.4-2.5-8-5.2-9.9
	c-15-10.7-10-23.2-3.4-35.4c14-26,28.5-51.8,43.4-78.8c-20.8,0-41,0-61.6,0c-11.9,21.5-24.4,44.1-37,66.8c-29.3,0-57.7,0-86.3,0
	C41,389.9,33.5,370.3,24,352.8c-4.2-7.8-12.5-20.2-12.5-24.8c0-5,3.5-8.5,9.9-21.5c2.9-5.8,32-55.1,59.7-106
	c10.9-19.9,21-40.6,33.3-59.9c12.2-19.3,23.2-39.4,34.5-59.3c11.6-20.5,22.7-41.3,34.5-61.7c3.1-5.4,7.9-9.8,11.6-14.2
	c21.4,0,41.8,0.1,62.2,0c14.4-0.1,25.1,4.1,31.2,19c7.3,17.7,23.1,30.6,29.1,49.2c1.4,4.2,3.9,10,2.3,13.1
	C303,118.2,285.5,149.4,268,181c18.9,0,39.1,0,61.6,0c12.5-22.8,37.7-65.2,41.2-68.7c4-4,79.8-4,85.5-1.6c4.6,2,43.5,63.3,43.5,70.5
	c0,5.7-30.8,66.2-51.4,97.5c-12.5,18.9-20.8,40.5-32.2,60.1c-13.8,23.7-25,48.8-41,71.5c-10.8,15.3-17.2,33.7-26.6,50.2
	C339.9,475.8,329.9,490.4,320.3,505.8z M242.8,483.1c29.6-53.1,55.9-100.4,82.6-148.5c-23.7,0-45.6,0-67,0
	c-6.1,12.9-10.1,26.5-18.1,37.2c-11.2,14.9-17.2,32.5-27.9,47.3c-5.5,7.6-5.8,12.6-0.2,20.8c11.2,16.3,20.4,34.1,30.1,50.5
	c25,0,48.5,0,72.2,0c8.6-14.8,17.5-29.1,25.5-43.8c22.2-40.7,45.5-80.8,68.1-121.4c23.2-41.8,46.8-83.4,69.3-125.6
	c1.9-3.6,3.6-7.4,6-12.4c-24.5,0-46.3,0-67,0c-13.1,24.9-25.9,49-38.6,73.1c-75.8,0-150.9,0-226,0.1c-0.6,0-1.4,0.7-1.9,1.2
	c-0.5,0.5-0.8,1.3-2,3.2c10.6,17.7,21.6,35.9,32.7,54.4c52,0,104.2,0,156.5,0.1c0.6,0,1.3,0.8,1.8,1.4c0.5,0.6,0.7,1.3,1.2,2.4
	c-3.3,7.3-5.2,16.1-10.3,22.3c-18.2,22.2-26.2,50-42.1,73.4c-12.7,18.6-21.1,40.2-31.9,60.2C255.2,480.8,251.1,480.8,242.8,483.1z
	 M268,32.9c-28.1,51.1-55.4,98.4-82,148.2c23.7,0,44.5,0,65,0c18.7-33.3,37-65.7,55.5-98.7c-12.5-21-25-41.9-37-62
	c-24.1,0-46.9,0-70.1,0c-8.7,14.4-18.3,28.3-25.9,43.3c-21.3,42.1-45.4,82.6-68.8,123.5c-23.3,40.9-45.9,82.3-68.7,123.5
	c-2,3.7-3.7,7.6-6.2,12.9c22.5,0,42.7,0,65.3,0c4.3-7.4,9-16.3,14.5-24.5c11.8-17.5,25.8-44.9,29-48.4c72.5,0,149.7,0,223.2-0.1
	c0.6,0,1.3-0.8,1.8-1.4c0.5-0.6,0.7-1.3,1.4-2.7c-10.3-16.5-20.8-33.4-30.9-49.7c-48.8,0-96.2-0.2-143.5,0.2
	c-8.1,0.1-14.1-1.5-17.2-9.5c6.5-13.6,11.6-28.2,20.1-40.5c8.3-12.1,14.3-25.2,21.3-37.9c7.4-13.4,17.5-28.6,24.4-42.2
	C246.1,52.9,259.7,27.6,268,32.9z M410.1,181.5c-14.5-16-19.1-37.5-34.2-54.6c-12.6,22.3-24.1,42.6-35.3,62.6
	c15.3,15.2,18.1,38.6,35.9,53.5C387.8,222.2,398.3,203,410.1,181.5z M137.2,267.7c-12.4,22.9-22.7,42.2-33.3,61.8
	c11,19.6,21.9,38.9,32.1,57.1c8.8-14.8,17.9-28.8,25.6-43.6c4.4-8.5,11.6-17.3,4.9-28.1C157.3,300,148,285,137.2,267.7z M452.4,124
	c-23.8,0-45.6,0-67.2,0c10.6,18.1,20.8,35.7,30.5,52.3c22.4,0,44.2,0,67.2,0C472.4,158.3,462.6,141.4,452.4,124z M96.6,333.7
	c-21.3,2-43.7-2-67.1,2.5c11.7,18.8,22.2,35.7,31.7,51c22.2,0,42.4,0,65.1,0C116.3,369.1,107.2,352.7,96.6,333.7z"/>
<g>
</g>
<g>
</g>
<g>
</g>
<g>
</g>
<g>
</g>
<g>
</g>
<g>
</g>
<g>
</g>
<g>
</g>
<g>
</g>
<g>
</g>
<g>
</g>
<g>
</g>
<g>
</g>
<g>
</g>
</svg>
