<?xml version="1.0" encoding="UTF-8"?>
<svg width="22px" height="15px" viewBox="0 0 22 15" version="1.1" xmlns="http://www.w3.org/2000/svg" xmlns:xlink="http://www.w3.org/1999/xlink">
    <!-- Generator: Sketch 50.2 (55047) - http://www.bohemiancoding.com/sketch -->
    <title>share</title>
    <desc>Created with Sketch.</desc>
    <defs></defs>
    <g id="share" stroke="none" stroke-width="1" fill="none" fill-rule="evenodd">
        <path d="M1.09832315,0 C1.00078802,0 0.911572657,0.019856395 0.821646316,0.0440704789 L10.5304878,9.1666709 C10.7587941,9.38117073 11.2412058,9.38117073 11.4695122,9.1666709 L21.1783537,0.0440704789 C21.0884273,0.0198422924 20.9992119,0 20.9016768,0 L1.09832315,0 Z M0.0419206781,0.828525004 C0.0165240927,0.923923135 0,1.02432485 0,1.12820426 L0,13.5384624 C0,13.6423418 0.0166073171,13.742752 0.0419206781,13.8381417 L7.23551827,7.58013366 L0.0419206781,0.828525004 Z M21.9580793,0.828525004 L14.7644817,7.58013366 L21.9580793,13.8381417 C21.983398,13.742752 22,13.6423418 22,13.5384624 L22,1.12820426 C22,1.02432485 21.9834732,0.923923135 21.9580793,0.828525004 Z M8.04878047,8.34694589 L0.830030462,14.6225821 C0.917536804,14.6454282 1.00361315,14.6666667 1.09832315,14.6666667 L20.9016768,14.6666667 C20.9963868,14.6666667 21.0824632,14.6455128 21.1699695,14.6225821 L13.9512195,8.34694589 L12.1821646,10.0039959 C11.5112558,10.6343236 10.4887441,10.6343236 9.81783535,10.0039959 L8.04878047,8.34694589 Z" id="Shape" fill="#000000" fill-rule="nonzero"></path>
    </g>
</svg>