<?xml version="1.0" encoding="UTF-8"?>
<svg width="22px" height="18px" viewBox="0 0 22 18" version="1.1" xmlns="http://www.w3.org/2000/svg" xmlns:xlink="http://www.w3.org/1999/xlink">
    <!-- Generator: Sketch 50.2 (55047) - http://www.bohemiancoding.com/sketch -->
    <title>twitter</title>
    <desc>Created with Sketch.</desc>
    <defs>
        <path d="M7.07384615,17.9046154 C4.62846154,17.9046154 2.34384615,17.1853846 0.431538462,15.9669231 C0.77,16.0092308 1.11692308,16.0261538 1.46384615,16.0261538 C3.49461538,16.0261538 5.36461538,15.3323077 6.85384615,14.1646154 C4.95846154,14.1307692 3.35076923,12.8784615 2.80076923,11.1523077 C3.06307692,11.2030769 3.33384615,11.2284615 3.61307692,11.2284615 C4.01076923,11.2284615 4.39153846,11.1776923 4.75538462,11.0761538 C2.77538462,10.6784615 1.27769231,8.91846154 1.27769231,6.82 C1.27769231,6.79461538 1.27769231,6.77769231 1.27769231,6.76076923 C1.86153846,7.08230769 2.53,7.27692308 3.24076923,7.30230769 C2.08153846,6.52384615 1.31153846,5.19538462 1.31153846,3.68923077 C1.31153846,2.89384615 1.52307692,2.14923077 1.89538462,1.50615385 C4.03615385,4.12923077 7.23461538,5.86384615 10.8392308,6.04153846 C10.7715385,5.72 10.7292308,5.39 10.7292308,5.05153846 C10.7292308,2.65692308 12.6753846,0.710769231 15.07,0.710769231 C16.3138462,0.710769231 17.4392308,1.23538462 18.2346154,2.08153846 C19.2246154,1.88692308 20.1553846,1.53153846 20.9930769,1.03230769 C20.6630769,2.04769231 19.9776923,2.90230769 19.0807692,3.43538462 C19.9607692,3.32538462 20.7984615,3.09692308 21.5769231,2.75 C20.9930769,3.62153846 20.2569231,4.39153846 19.4107692,5.00076923 C19.4192308,5.18692308 19.4192308,5.37307692 19.4192308,5.55923077 C19.4192308,11.2876923 15.0530769,17.9046154 7.07384615,17.9046154 Z" id="path-1"></path>
    </defs>
    <g id="twitter" stroke="none" stroke-width="1" fill="none" fill-rule="evenodd">
        <g id="Group-8">
            <mask id="mask-2" fill="white">
                <use xlink:href="#path-1"></use>
            </mask>
            <g id="Clip-243"></g>
            <polygon id="Fill-242" fill="#000000" mask="url(#mask-2)" points="-3.79923077 21.3334108 23.6127693 21.3334108 23.6127693 -2.42 -3.79923077 -2.42"></polygon>
        </g>
    </g>
</svg>